<svg width="777" height="651" viewBox="0 0 777 651" fill="none" xmlns="http://www.w3.org/2000/svg">
<g opacity="0.4" filter="url(#filter0_f_4_41)">
<path d="M648.77 518.834H605.648V519.16H648.77V518.834Z" fill="#EBEBEB"/>
<path d="M494.248 522.375H482.934V522.701H494.248V522.375Z" fill="#EBEBEB"/>
<path d="M604.346 506.751H579.36V507.077H604.346V506.751Z" fill="#EBEBEB"/>
<path d="M187.536 508.939H131.303V509.264H187.536V508.939Z" fill="#EBEBEB"/>
<path d="M207.379 508.939H199.137V509.264H207.379V508.939Z" fill="#EBEBEB"/>
<path d="M356.145 514.433H234.174V514.759H356.145V514.433Z" fill="#EBEBEB"/>
<path d="M373.397 439.816H121.981C120.009 439.816 118.118 439.032 116.724 437.638C115.329 436.244 114.546 434.353 114.546 432.381V78.9793C114.563 77.0189 115.354 75.1446 116.747 73.7644C118.139 72.3843 120.02 71.6099 121.981 71.61H373.397C374.373 71.61 375.34 71.8023 376.242 72.1759C377.144 72.5495 377.963 73.0972 378.654 73.7875C379.344 74.4779 379.892 75.2974 380.265 76.1994C380.639 77.1014 380.831 78.0681 380.831 79.0444V432.381C380.831 433.358 380.639 434.324 380.265 435.226C379.892 436.128 379.344 436.948 378.654 437.638C377.963 438.328 377.144 438.876 376.242 439.25C375.34 439.623 374.373 439.816 373.397 439.816ZM121.981 71.8704C120.096 71.8739 118.29 72.6239 116.958 73.9564C115.625 75.2888 114.875 77.095 114.872 78.9793V432.381C114.875 434.266 115.625 436.072 116.958 437.404C118.29 438.737 120.096 439.487 121.981 439.49H373.397C375.281 439.487 377.087 438.737 378.42 437.404C379.752 436.072 380.502 434.266 380.506 432.381V78.9793C380.502 77.095 379.752 75.2888 378.42 73.9564C377.087 72.6239 375.281 71.8739 373.397 71.8704H121.981Z" fill="#EBEBEB"/>
<path d="M655.019 439.816H403.603C401.632 439.816 399.741 439.032 398.346 437.638C396.952 436.244 396.169 434.353 396.169 432.381V78.9793C396.186 77.0189 396.977 75.1446 398.369 73.7644C399.762 72.3843 401.643 71.6099 403.603 71.61H655.019C656.991 71.61 658.882 72.3933 660.276 73.7875C661.671 75.1817 662.454 77.0727 662.454 79.0444V432.381C662.454 434.353 661.671 436.244 660.276 437.638C658.882 439.032 656.991 439.816 655.019 439.816ZM403.603 71.8704C401.719 71.8739 399.913 72.6239 398.58 73.9564C397.248 75.2888 396.498 77.095 396.494 78.9793V432.381C396.498 434.266 397.248 436.072 398.58 437.404C399.913 438.737 401.719 439.487 403.603 439.49H655.019C656.904 439.487 658.71 438.737 660.042 437.404C661.375 436.072 662.125 434.266 662.128 432.381V78.9793C662.125 77.095 661.375 75.2888 660.042 73.9564C658.71 72.6239 656.904 71.8739 655.019 71.8704H403.603Z" fill="#EBEBEB"/>
<path d="M714 497.885H63V498.21H714V497.885Z" fill="#EBEBEB"/>
<path d="M218.368 409.805C217.274 397.227 204.436 392.527 189.216 393.855C173.996 395.183 162.186 402.045 163.254 414.622L218.368 409.805Z" fill="#F0F0F0"/>
<path d="M188.721 388.113C195.778 387.488 198.03 381.525 197.418 374.468C196.807 367.411 193.512 361.93 186.482 362.542C179.451 363.154 177.172 369.13 177.784 376.187C178.396 383.244 181.664 388.725 188.721 388.113Z" fill="#F0F0F0"/>
<path d="M505.81 141.918C505.934 143.314 505.64 144.715 504.967 145.944C504.294 147.173 503.272 148.175 502.029 148.823C500.787 149.471 499.38 149.735 497.987 149.584C496.594 149.432 495.277 148.87 494.203 147.969C493.13 147.069 492.347 145.87 491.955 144.525C491.563 143.179 491.579 141.748 492 140.411C492.422 139.075 493.23 137.894 494.323 137.017C495.417 136.14 496.745 135.608 498.141 135.486C500.011 135.324 501.869 135.91 503.306 137.116C504.744 138.322 505.645 140.049 505.81 141.918Z" fill="#F5F5F5"/>
<path d="M544.961 138.455C545.082 139.848 544.787 141.245 544.114 142.471C543.441 143.696 542.419 144.694 541.178 145.339C539.938 145.984 538.534 146.247 537.144 146.093C535.754 145.94 534.441 145.379 533.37 144.479C532.3 143.58 531.52 142.383 531.129 141.04C530.739 139.698 530.755 138.27 531.177 136.936C531.598 135.603 532.405 134.425 533.496 133.55C534.587 132.675 535.913 132.144 537.306 132.023C539.173 131.864 541.027 132.452 542.462 133.657C543.897 134.863 544.796 136.588 544.961 138.455Z" fill="#F5F5F5"/>
<path d="M584.125 135.03C584.249 136.426 583.956 137.827 583.283 139.057C582.61 140.286 581.587 141.288 580.345 141.935C579.102 142.583 577.695 142.848 576.302 142.696C574.909 142.544 573.592 141.982 572.519 141.082C571.445 140.181 570.663 138.982 570.27 137.637C569.878 136.292 569.894 134.86 570.315 133.524C570.737 132.187 571.546 131.006 572.639 130.129C573.732 129.253 575.061 128.72 576.457 128.598C578.326 128.436 580.184 129.022 581.622 130.228C583.06 131.434 583.96 133.161 584.125 135.03Z" fill="#F5F5F5"/>
<path d="M509.3 181.785C509.423 183.181 509.13 184.582 508.457 185.811C507.784 187.041 506.761 188.042 505.519 188.69C504.276 189.338 502.869 189.603 501.476 189.451C500.083 189.299 498.766 188.737 497.693 187.837C496.619 186.936 495.837 185.737 495.444 184.392C495.052 183.047 495.068 181.615 495.49 180.279C495.911 178.942 496.72 177.761 497.813 176.884C498.906 176.008 500.235 175.475 501.631 175.353C503.5 175.191 505.358 175.777 506.796 176.983C508.234 178.189 509.134 179.916 509.3 181.785Z" fill="#F5F5F5"/>
<path d="M548.451 178.374C548.572 179.767 548.277 181.165 547.603 182.39C546.93 183.615 545.908 184.614 544.668 185.259C543.427 185.903 542.023 186.166 540.633 186.013C539.243 185.86 537.93 185.298 536.86 184.398C535.789 183.499 535.009 182.302 534.619 180.96C534.228 179.617 534.245 178.189 534.666 176.856C535.087 175.522 535.894 174.344 536.985 173.469C538.076 172.595 539.402 172.063 540.795 171.942C541.72 171.862 542.652 171.964 543.537 172.244C544.423 172.524 545.244 172.975 545.955 173.572C546.666 174.17 547.252 174.901 547.68 175.725C548.109 176.549 548.37 177.449 548.451 178.374Z" fill="#F5F5F5"/>
<path d="M587.615 174.937C587.738 176.333 587.445 177.734 586.772 178.963C586.099 180.192 585.077 181.194 583.834 181.842C582.591 182.49 581.185 182.754 579.791 182.602C578.398 182.45 577.082 181.888 576.008 180.988C574.934 180.087 574.152 178.889 573.76 177.543C573.368 176.198 573.383 174.767 573.805 173.43C574.226 172.094 575.035 170.912 576.128 170.036C577.221 169.159 578.55 168.626 579.946 168.505C581.816 168.342 583.673 168.928 585.111 170.134C586.549 171.34 587.449 173.067 587.615 174.937Z" fill="#F5F5F5"/>
<path d="M512.789 221.705C512.91 223.098 512.615 224.495 511.942 225.721C511.268 226.946 510.247 227.944 509.006 228.589C507.765 229.234 506.361 229.496 504.971 229.343C503.582 229.19 502.268 228.628 501.198 227.729C500.127 226.83 499.347 225.633 498.957 224.29C498.566 222.948 498.583 221.519 499.004 220.186C499.425 218.853 500.232 217.674 501.323 216.8C502.414 215.925 503.74 215.394 505.133 215.273C506.058 215.19 506.991 215.292 507.877 215.571C508.763 215.85 509.585 216.301 510.297 216.899C511.008 217.496 511.594 218.228 512.022 219.053C512.45 219.878 512.71 220.779 512.789 221.705Z" fill="#F5F5F5"/>
<path d="M551.953 218.267C552.077 219.663 551.783 221.064 551.11 222.293C550.437 223.523 549.415 224.524 548.172 225.172C546.93 225.82 545.523 226.085 544.13 225.933C542.737 225.781 541.42 225.219 540.346 224.319C539.273 223.418 538.49 222.219 538.098 220.874C537.706 219.529 537.722 218.097 538.143 216.761C538.565 215.424 539.373 214.243 540.466 213.366C541.56 212.49 542.888 211.957 544.284 211.835C546.154 211.673 548.012 212.259 549.449 213.465C550.887 214.671 551.788 216.398 551.953 218.267Z" fill="#F5F5F5"/>
<path d="M591.104 214.83C591.228 216.226 590.934 217.627 590.261 218.856C589.588 220.085 588.566 221.087 587.323 221.735C586.081 222.383 584.674 222.648 583.281 222.496C581.888 222.344 580.571 221.782 579.497 220.881C578.424 219.981 577.641 218.782 577.249 217.437C576.857 216.091 576.873 214.66 577.294 213.324C577.716 211.987 578.524 210.806 579.618 209.929C580.711 209.052 582.039 208.52 583.435 208.398C585.305 208.236 587.163 208.822 588.6 210.028C590.038 211.234 590.939 212.961 591.104 214.83Z" fill="#F5F5F5"/>
<path d="M582.641 217.148L502.204 224.178L573.527 137.517L500.472 143.91C500.268 143.93 500.062 143.908 499.867 143.847C499.671 143.786 499.49 143.687 499.333 143.554C499.177 143.422 499.048 143.26 498.955 143.077C498.862 142.895 498.807 142.695 498.792 142.491C498.756 142.082 498.884 141.675 499.148 141.36C499.411 141.045 499.789 140.848 500.199 140.811L580.649 133.781L509.313 220.442L582.394 214.049C582.806 214.016 583.214 214.147 583.53 214.412C583.847 214.678 584.047 215.057 584.086 215.468C584.102 215.673 584.078 215.88 584.014 216.075C583.949 216.271 583.847 216.452 583.713 216.608C583.579 216.764 583.415 216.892 583.231 216.985C583.047 217.077 582.847 217.133 582.641 217.148Z" fill="#E6E6E6"/>
<path d="M583.878 371.864C583.754 371.485 583.522 371.151 583.209 370.903C582.896 370.655 582.518 370.505 582.12 370.471C578.623 370.31 575.312 368.847 572.837 366.37C569.621 363.128 567.733 358.219 567.421 352.386C567.391 351.86 567.162 351.365 566.779 351.002C566.397 350.639 565.891 350.436 565.364 350.433C565.079 350.435 564.797 350.494 564.536 350.607C564.274 350.72 564.039 350.885 563.843 351.092C563.647 351.299 563.495 351.543 563.396 351.811C563.297 352.078 563.253 352.362 563.267 352.647C563.632 359.495 565.95 365.354 569.895 369.299C572.984 372.394 577.083 374.274 581.443 374.599H581.743C582.085 374.625 582.429 374.566 582.743 374.427C583.057 374.288 583.332 374.074 583.543 373.804C583.754 373.533 583.896 373.214 583.954 372.876C584.012 372.538 583.986 372.19 583.878 371.864Z" fill="#F0F0F0"/>
<path d="M579.712 396.85C562.46 395.339 550.013 383.582 546.081 365.224C546.018 364.948 546.012 364.663 546.063 364.385C546.114 364.107 546.22 363.842 546.376 363.606C546.531 363.37 546.733 363.168 546.969 363.012C547.205 362.856 547.47 362.749 547.748 362.698C548.275 362.605 548.817 362.717 549.263 363.013C549.709 363.309 550.024 363.765 550.143 364.287C553.672 380.783 564.739 391.355 580.089 392.696C596.911 394.168 614.97 383.101 618.212 355.212C618.268 354.668 618.535 354.168 618.957 353.82C619.378 353.471 619.92 353.303 620.464 353.35C620.74 353.373 621.009 353.45 621.254 353.579C621.499 353.707 621.716 353.883 621.892 354.097C622.068 354.31 622.2 354.557 622.279 354.822C622.358 355.088 622.383 355.366 622.352 355.641C619.24 381.942 601.95 398.79 579.712 396.85Z" fill="#F0F0F0"/>
<path d="M547.162 346.931C546.886 346.908 546.617 346.83 546.372 346.702C546.127 346.574 545.91 346.398 545.734 346.184C545.558 345.97 545.426 345.724 545.347 345.458C545.268 345.193 545.243 344.915 545.274 344.639C548.373 318.339 565.663 301.478 587.888 303.431C607.418 305.137 620.503 319.719 622.548 341.684C622.569 341.96 622.535 342.237 622.448 342.499C622.361 342.762 622.222 343.005 622.041 343.213C621.859 343.422 621.637 343.592 621.389 343.714C621.141 343.836 620.871 343.907 620.595 343.923C620.051 343.949 619.519 343.762 619.111 343.402C618.703 343.043 618.451 342.539 618.407 341.996C616.519 322.206 604.84 309.095 587.537 307.585C570.78 306.113 552.643 317.167 549.414 345.03C549.391 345.303 549.315 345.568 549.189 345.812C549.063 346.055 548.891 346.271 548.682 346.447C548.473 346.624 548.231 346.757 547.97 346.84C547.709 346.923 547.434 346.954 547.162 346.931Z" fill="#F0F0F0"/>
<path d="M580.558 385.691C577.465 385.443 574.434 384.687 571.587 383.452C571.322 383.336 571.083 383.166 570.887 382.952C570.691 382.739 570.541 382.488 570.446 382.214C570.352 381.94 570.316 381.649 570.34 381.36C570.364 381.071 570.447 380.79 570.585 380.536C570.829 380.088 571.23 379.747 571.711 379.579C572.192 379.41 572.719 379.426 573.189 379.624C575.903 380.79 578.805 381.46 581.756 381.603C594.502 382.332 607.965 373.296 609.293 351.475C610.1 338.025 605.491 327.167 596.898 321.972C596.453 321.702 596.125 321.277 595.978 320.778C595.831 320.279 595.876 319.744 596.104 319.276C596.233 319.018 596.415 318.789 596.636 318.604C596.858 318.418 597.115 318.281 597.392 318.199C597.669 318.117 597.96 318.093 598.247 318.128C598.534 318.164 598.81 318.258 599.059 318.404C609.02 324.419 614.358 336.632 613.447 351.722C612.145 372.763 599.046 386.772 581.508 385.77L580.558 385.691Z" fill="#F0F0F0"/>
<path d="M562.017 372.711C561.778 372.873 561.507 372.984 561.223 373.037C560.938 373.09 560.646 373.084 560.364 373.02C560.082 372.955 559.816 372.833 559.583 372.661C559.35 372.489 559.155 372.271 559.01 372.021C555.151 364.845 553.455 356.704 554.127 348.585C555.351 328.443 567.421 314.733 583.813 314.498C584.102 314.492 584.388 314.546 584.655 314.656C584.922 314.767 585.163 314.931 585.364 315.139C585.564 315.346 585.72 315.593 585.82 315.864C585.921 316.135 585.964 316.423 585.948 316.712C585.916 317.232 585.689 317.722 585.313 318.084C584.937 318.445 584.439 318.653 583.917 318.665C571.756 318.899 559.544 328.091 558.294 348.832C557.662 356.161 559.173 363.516 562.642 370.002C562.903 370.453 562.984 370.985 562.868 371.493C562.752 372 562.448 372.444 562.017 372.737V372.711Z" fill="#F0F0F0"/>
<path d="M590.479 371.07C590.282 370.607 590.259 370.088 590.414 369.609C590.57 369.131 590.894 368.725 591.326 368.466C596.807 365.172 600.166 358.258 600.218 349.913C600.218 343.233 598.33 337.583 594.763 334.002C593.377 332.629 591.726 331.554 589.911 330.842C588.095 330.13 586.153 329.797 584.204 329.862C577.785 329.862 572.577 333.39 569.699 339.588C569.477 340.059 569.086 340.429 568.604 340.624C568.121 340.82 567.582 340.826 567.095 340.642C566.824 340.542 566.576 340.386 566.368 340.185C566.159 339.983 565.995 339.741 565.885 339.473C565.774 339.205 565.721 338.918 565.728 338.628C565.735 338.338 565.801 338.053 565.924 337.791C569.491 330.2 576.17 325.708 584.152 325.695C586.652 325.631 589.139 326.073 591.464 326.995C593.789 327.917 595.903 329.299 597.679 331.06C602.041 335.434 604.411 342.14 604.359 349.952C604.28 359.782 600.14 368.036 593.396 372.086C593.14 372.225 592.859 372.309 592.569 372.333C592.279 372.357 591.987 372.32 591.712 372.225C591.438 372.129 591.186 371.977 590.974 371.778C590.761 371.579 590.593 371.338 590.479 371.07Z" fill="#F0F0F0"/>
<path d="M575.48 355.693C575.202 355.807 574.903 355.859 574.603 355.845C574.303 355.832 574.009 355.754 573.742 355.617C573.475 355.48 573.241 355.286 573.055 355.05C572.87 354.814 572.738 354.54 572.668 354.248C572.525 353.688 572.42 353.102 572.329 352.504C571.145 344.692 575.337 337.934 582.068 336.723C583.636 336.382 585.261 336.413 586.814 336.814C588.368 337.214 589.806 337.972 591.013 339.028C591.24 339.229 591.418 339.479 591.534 339.759C591.651 340.039 591.703 340.341 591.687 340.644C591.671 340.947 591.586 341.242 591.441 341.508C591.295 341.773 591.091 342.003 590.844 342.179L590.714 342.27C590.323 342.541 589.851 342.67 589.377 342.635C588.903 342.599 588.455 342.401 588.11 342.075C587.379 341.458 586.516 341.019 585.587 340.794C584.659 340.568 583.69 340.56 582.758 340.773C577.628 341.697 575.675 347.035 576.405 351.826C576.483 352.295 576.561 352.751 576.678 353.128C576.804 353.619 576.748 354.138 576.52 354.591C576.293 355.043 575.91 355.398 575.441 355.589L575.48 355.693Z" fill="#F0F0F0"/>
<path d="M582.368 363.714C582.039 363.682 581.725 363.566 581.453 363.379C581.182 363.191 580.963 362.937 580.817 362.641C580.671 362.345 580.603 362.017 580.619 361.688C580.635 361.358 580.735 361.038 580.91 360.758L581.092 360.472C581.279 360.173 581.544 359.932 581.858 359.773C582.173 359.615 582.525 359.546 582.876 359.573C583.529 359.611 584.184 359.571 584.829 359.456C589.307 358.649 591.339 354.483 591.339 350.238C591.326 349.728 591.498 349.231 591.824 348.838C592.149 348.446 592.606 348.184 593.109 348.103C593.398 348.059 593.693 348.076 593.975 348.153C594.257 348.23 594.519 348.366 594.745 348.552C594.971 348.737 595.156 348.968 595.287 349.229C595.418 349.491 595.492 349.777 595.505 350.069C595.622 356.865 591.599 362.477 585.571 363.557C584.515 363.753 583.438 363.805 582.368 363.714Z" fill="#F0F0F0"/>
<path d="M583.292 356.019C582.241 355.93 581.243 355.515 580.44 354.831C579.637 354.147 579.068 353.228 578.813 352.204C578.74 351.915 578.736 351.613 578.803 351.322C578.87 351.032 579.005 350.761 579.197 350.533C579.39 350.306 579.633 350.127 579.909 350.012C580.184 349.897 580.482 349.85 580.779 349.873H581.261C581.626 349.912 581.971 350.055 582.255 350.286C582.54 350.517 582.751 350.826 582.863 351.175C582.908 351.357 583.009 351.52 583.151 351.641C583.294 351.762 583.47 351.836 583.657 351.852C584.659 351.944 584.829 350.55 584.855 350.212C584.915 349.705 584.82 349.192 584.581 348.741C584.222 348.306 584.036 347.754 584.06 347.191C584.093 346.778 584.249 346.383 584.508 346.059C584.766 345.734 585.116 345.494 585.512 345.37C585.908 345.245 586.332 345.242 586.73 345.36C587.128 345.478 587.481 345.712 587.745 346.033C588.761 347.316 589.229 348.949 589.047 350.577C588.709 354.001 586.3 356.279 583.292 356.019Z" fill="#F0F0F0"/>
<path d="M544.128 309.42C543.856 309.397 543.591 309.321 543.348 309.195C543.106 309.069 542.891 308.897 542.715 308.687C542.54 308.478 542.407 308.236 542.326 307.975C542.244 307.714 542.215 307.44 542.24 307.168L543.816 289.109L561.874 290.698C562.147 290.72 562.412 290.797 562.654 290.923C562.897 291.049 563.112 291.221 563.287 291.431C563.463 291.64 563.595 291.882 563.677 292.143C563.758 292.404 563.787 292.678 563.762 292.95C563.739 293.223 563.663 293.488 563.537 293.731C563.411 293.975 563.239 294.191 563.03 294.367C562.821 294.544 562.579 294.677 562.318 294.76C562.057 294.843 561.783 294.874 561.51 294.851L547.604 293.627L546.394 307.532C546.369 307.805 546.291 308.07 546.164 308.313C546.037 308.556 545.863 308.771 545.652 308.946C545.442 309.122 545.199 309.254 544.937 309.335C544.676 309.416 544.401 309.445 544.128 309.42Z" fill="#F0F0F0"/>
<path d="M629.969 316.933C629.697 316.91 629.432 316.833 629.189 316.708C628.947 316.582 628.731 316.409 628.556 316.2C628.38 315.99 628.248 315.748 628.167 315.488C628.085 315.227 628.056 314.952 628.081 314.68L629.292 300.775L615.387 299.564C615.114 299.54 614.848 299.462 614.606 299.334C614.363 299.207 614.148 299.033 613.973 298.823C613.797 298.613 613.665 298.37 613.584 298.108C613.503 297.846 613.474 297.571 613.499 297.299C613.522 297.026 613.598 296.761 613.724 296.519C613.85 296.276 614.022 296.061 614.232 295.886C614.441 295.71 614.683 295.578 614.944 295.496C615.205 295.415 615.479 295.386 615.751 295.411L633.81 296.986L632.234 315.084C632.175 315.628 631.904 316.127 631.481 316.473C631.057 316.819 630.514 316.984 629.969 316.933Z" fill="#F0F0F0"/>
<path d="M623.576 414.036L605.517 412.461C605.244 412.436 604.979 412.358 604.737 412.231C604.494 412.104 604.279 411.93 604.103 411.719C603.928 411.509 603.796 411.266 603.715 411.005C603.633 410.743 603.604 410.468 603.629 410.195C603.652 409.923 603.729 409.658 603.855 409.415C603.981 409.173 604.153 408.958 604.363 408.782C604.572 408.607 604.814 408.474 605.075 408.393C605.335 408.311 605.61 408.282 605.882 408.307L619.787 409.518L620.998 395.626C621.021 395.352 621.098 395.085 621.224 394.841C621.351 394.597 621.524 394.38 621.735 394.204C621.946 394.027 622.189 393.894 622.451 393.811C622.714 393.729 622.99 393.7 623.264 393.725C623.536 393.748 623.801 393.824 624.043 393.95C624.286 394.076 624.501 394.249 624.677 394.458C624.852 394.667 624.984 394.909 625.066 395.17C625.147 395.431 625.176 395.705 625.151 395.977L623.576 414.036Z" fill="#F0F0F0"/>
<path d="M551.641 407.708L533.582 406.12L535.157 388.074C535.21 387.524 535.477 387.016 535.901 386.66C536.325 386.305 536.871 386.13 537.423 386.173C537.696 386.198 537.961 386.276 538.203 386.403C538.446 386.53 538.661 386.704 538.837 386.914C539.012 387.125 539.144 387.368 539.225 387.629C539.307 387.891 539.336 388.166 539.311 388.439L538.1 402.318L551.992 403.542C552.265 403.565 552.53 403.641 552.774 403.767C553.017 403.893 553.233 404.065 553.409 404.274C553.586 404.483 553.72 404.725 553.803 404.986C553.885 405.247 553.916 405.522 553.893 405.794C553.847 406.346 553.584 406.857 553.162 407.216C552.74 407.575 552.193 407.752 551.641 407.708Z" fill="#F0F0F0"/>
<path d="M160.298 368.635C159.959 368.661 159.623 368.552 159.363 368.333C159.103 368.114 158.938 367.802 158.905 367.463L157.942 356.37L169.035 355.394C169.374 355.368 169.71 355.477 169.97 355.696C170.231 355.915 170.395 356.227 170.428 356.566C170.45 356.903 170.34 357.235 170.121 357.493C169.903 357.75 169.592 357.913 169.256 357.946L160.715 358.701L161.457 367.242C161.483 367.579 161.376 367.913 161.16 368.173C160.944 368.433 160.635 368.599 160.298 368.635Z" fill="#E0E0E0"/>
<path d="M213.082 364.013C212.744 364.039 212.41 363.932 212.15 363.716C211.89 363.5 211.725 363.191 211.688 362.854L210.946 354.3L202.392 355.055C202.053 355.081 201.717 354.972 201.457 354.753C201.196 354.534 201.032 354.222 200.999 353.884C200.974 353.544 201.082 353.209 201.301 352.948C201.52 352.688 201.832 352.524 202.171 352.49L213.264 351.527L214.24 362.62C214.266 362.957 214.159 363.291 213.943 363.551C213.727 363.811 213.418 363.977 213.082 364.013Z" fill="#E0E0E0"/>
<path d="M218.55 411.81L207.444 412.786C207.105 412.812 206.769 412.703 206.509 412.484C206.248 412.265 206.084 411.953 206.051 411.614C206.025 411.275 206.134 410.939 206.353 410.679C206.572 410.419 206.884 410.254 207.223 410.221L215.764 409.479L215.022 400.938C214.996 400.601 215.103 400.267 215.319 400.007C215.535 399.747 215.844 399.581 216.18 399.545C216.518 399.519 216.852 399.626 217.112 399.842C217.372 400.058 217.537 400.367 217.573 400.704L218.55 411.81Z" fill="#E0E0E0"/>
<path d="M174.308 415.677L163.254 416.64L162.277 405.534C162.256 405.197 162.366 404.864 162.584 404.607C162.803 404.349 163.113 404.187 163.449 404.154C163.784 404.132 164.115 404.24 164.372 404.456C164.629 404.672 164.793 404.979 164.829 405.313L165.585 413.867L174.126 413.112C174.465 413.086 174.801 413.195 175.061 413.414C175.321 413.633 175.486 413.945 175.519 414.283C175.531 414.454 175.51 414.626 175.455 414.789C175.401 414.952 175.315 415.102 175.203 415.232C175.09 415.361 174.953 415.467 174.8 415.543C174.646 415.62 174.479 415.665 174.308 415.677Z" fill="#E0E0E0"/>
<path d="M212.183 183.582L169.764 187.228L168.892 177.293C168.828 172.552 170.559 167.962 173.738 164.444C176.918 160.926 181.309 158.74 186.033 158.325C190.756 157.91 195.462 159.296 199.206 162.206C202.95 165.115 205.456 169.333 206.22 174.012L206.715 179.793L212.847 179.259L212.339 173.479C212.054 170.218 211.129 167.045 209.617 164.142C208.106 161.239 206.037 158.662 203.53 156.559C201.022 154.455 198.125 152.866 195.003 151.882C191.881 150.898 188.597 150.538 185.336 150.824C178.751 151.4 172.665 154.569 168.416 159.633C166.312 162.141 164.723 165.038 163.739 168.16C162.755 171.282 162.396 174.567 162.681 177.827L163.553 187.827C161.138 188.299 158.983 189.648 157.502 191.615C156.022 193.581 155.32 196.025 155.533 198.477L158.567 233.162C158.675 234.471 159.041 235.746 159.643 236.913C160.245 238.081 161.072 239.118 162.076 239.965C163.081 240.811 164.242 241.452 165.494 241.848C166.747 242.245 168.065 242.39 169.373 242.276L216.935 238.123C218.245 238.015 219.519 237.649 220.687 237.047C221.854 236.444 222.891 235.617 223.738 234.613C224.585 233.609 225.225 232.448 225.622 231.195C226.018 229.943 226.164 228.625 226.049 227.316L223.016 192.631C222.9 191.325 222.527 190.055 221.92 188.893C221.312 187.732 220.482 186.701 219.476 185.861C218.469 185.02 217.307 184.386 216.056 183.995C214.805 183.604 213.489 183.464 212.183 183.582ZM194.137 210.312L195.179 222.251C195.249 222.732 195.22 223.222 195.095 223.691C194.969 224.16 194.748 224.598 194.447 224.979C194.146 225.36 193.77 225.675 193.343 225.906C192.916 226.137 192.446 226.278 191.962 226.32C191.478 226.363 190.991 226.306 190.53 226.154C190.069 226.001 189.644 225.757 189.28 225.434C188.917 225.112 188.624 224.719 188.418 224.279C188.212 223.839 188.098 223.362 188.083 222.876L187.042 210.924C185.967 210.264 185.129 209.283 184.645 208.119C184.161 206.955 184.057 205.668 184.347 204.441C184.638 203.215 185.308 202.111 186.262 201.287C187.216 200.463 188.405 199.962 189.661 199.853C190.917 199.745 192.175 200.036 193.256 200.684C194.337 201.332 195.186 202.305 195.682 203.464C196.178 204.623 196.296 205.908 196.018 207.138C195.741 208.368 195.083 209.478 194.137 210.312Z" fill="#EBEBEB"/>
<path d="M284.913 203.62L280.629 196.602C278.47 196.909 276.278 196.909 274.119 196.602L269.823 203.594L269.002 203.372C266.218 202.639 263.546 201.531 261.06 200.078L260.331 199.662L262.141 192.058C262.176 191.91 262.24 191.771 262.329 191.649C262.418 191.526 262.531 191.423 262.661 191.344C262.79 191.265 262.934 191.213 263.084 191.19C263.234 191.168 263.387 191.175 263.534 191.212C263.829 191.283 264.084 191.468 264.243 191.727C264.401 191.985 264.451 192.297 264.38 192.592L262.948 198.516C264.798 199.524 266.749 200.336 268.768 200.938L272.96 194.089L273.729 194.219C276.161 194.61 278.64 194.61 281.072 194.219L281.827 194.089L286.02 200.938C288.04 200.34 289.991 199.528 291.84 198.516L289.978 190.704L290.603 190.248C292.299 189.025 293.819 187.575 295.121 185.939C295.301 185.703 295.567 185.547 295.861 185.503C296.155 185.459 296.454 185.531 296.696 185.704C296.823 185.792 296.93 185.905 297.011 186.036C297.093 186.166 297.147 186.312 297.17 186.465C297.193 186.617 297.185 186.773 297.146 186.922C297.107 187.071 297.038 187.21 296.943 187.332C295.664 188.947 294.19 190.399 292.556 191.654L294.47 199.636L293.727 200.052C291.245 201.502 288.578 202.61 285.798 203.346L284.913 203.62ZM258.586 188.334C258.235 187.931 257.883 187.501 257.545 187.032L249.564 188.946L249.134 188.217C247.692 185.726 246.585 183.055 245.84 180.275L245.632 179.455L252.623 175.158C252.316 172.999 252.316 170.807 252.623 168.648L245.632 164.364L245.84 163.531C246.585 160.755 247.692 158.089 249.134 155.602L249.564 154.86L257.545 156.774C258.877 155.03 260.436 153.471 262.18 152.139L260.735 146.097C260.664 145.802 260.714 145.491 260.872 145.232C261.031 144.974 261.286 144.788 261.581 144.717C261.726 144.683 261.877 144.677 262.025 144.701C262.172 144.724 262.314 144.777 262.441 144.856C262.568 144.934 262.678 145.038 262.765 145.159C262.852 145.28 262.914 145.418 262.948 145.564L264.758 153.089L264.133 153.532C262.127 154.975 260.368 156.734 258.925 158.74L258.469 159.365L250.657 157.503C249.645 159.351 248.833 161.302 248.236 163.323L255.071 167.515L254.954 168.27C254.519 170.699 254.519 173.185 254.954 175.614L255.071 176.382L248.236 180.574C248.835 182.59 249.647 184.537 250.657 186.381L258.469 184.519L258.925 185.144C259.33 185.735 259.764 186.304 260.227 186.85C260.428 187.061 260.539 187.34 260.539 187.631C260.539 187.922 260.428 188.202 260.227 188.412C260.116 188.519 259.985 188.601 259.841 188.655C259.697 188.709 259.543 188.733 259.39 188.725C259.236 188.718 259.086 188.68 258.948 188.612C258.81 188.545 258.687 188.451 258.586 188.334ZM305.12 188.972L302.177 188.269C301.882 188.198 301.627 188.013 301.469 187.754C301.31 187.495 301.261 187.184 301.331 186.889C301.402 186.594 301.587 186.339 301.846 186.18C302.105 186.022 302.416 185.972 302.711 186.043L304.013 186.342C305.019 184.497 305.827 182.551 306.422 180.535L299.586 176.343L299.717 175.575C300.151 173.146 300.151 170.66 299.717 168.231L299.586 167.476L306.422 163.284C305.829 161.263 305.022 159.312 304.013 157.464L296.201 159.326L295.759 158.701C294.312 156.698 292.553 154.94 290.551 153.493L289.926 153.05L291.787 145.238C289.939 144.23 287.988 143.422 285.967 142.829L281.736 149.73L280.981 149.6C278.549 149.209 276.07 149.209 273.638 149.6L272.869 149.73L268.716 142.855L267.935 143.09C267.657 143.181 267.354 143.161 267.091 143.032C266.828 142.903 266.626 142.676 266.529 142.4C266.475 142.257 266.45 142.105 266.456 141.953C266.461 141.8 266.498 141.651 266.562 141.513C266.626 141.374 266.717 141.25 266.83 141.148C266.943 141.045 267.075 140.966 267.219 140.915C267.792 140.733 268.377 140.564 268.95 140.408L269.771 140.186L274.067 147.191C276.225 146.87 278.419 146.87 280.577 147.191L284.861 140.186L285.694 140.408C288.471 141.149 291.138 142.257 293.623 143.702L294.365 144.131L292.451 152.113C294.198 153.442 295.757 155.001 297.087 156.748L305.068 154.834L305.497 155.576C306.944 158.06 308.052 160.727 308.792 163.505L309.013 164.338L302.008 168.622C302.333 170.78 302.333 172.974 302.008 175.132L309.013 179.429L308.792 180.249C308.052 183.031 306.945 185.702 305.497 188.191L305.12 188.972ZM277.023 183.061C274.186 182.949 271.495 181.771 269.488 179.764C267.48 177.756 266.302 175.066 266.19 172.229C266.113 169.438 267.083 166.72 268.909 164.609C270.736 162.498 273.287 161.147 276.059 160.823C276.222 160.803 276.387 160.817 276.544 160.866C276.7 160.914 276.845 160.995 276.968 161.103C277.091 161.211 277.19 161.344 277.258 161.494C277.325 161.643 277.361 161.805 277.361 161.969C277.36 162.246 277.257 162.513 277.072 162.719C276.888 162.925 276.634 163.057 276.359 163.089C274.429 163.309 272.626 164.156 271.224 165.5C269.823 166.845 268.902 168.612 268.603 170.531C268.303 172.449 268.642 174.413 269.567 176.121C270.492 177.828 271.952 179.185 273.722 179.982C275.493 180.78 277.476 180.974 279.368 180.535C281.259 180.096 282.955 179.048 284.193 177.553C285.431 176.057 286.144 174.196 286.223 172.256C286.301 170.315 285.74 168.403 284.626 166.812C284.466 166.587 284.395 166.309 284.429 166.035C284.463 165.76 284.598 165.508 284.809 165.328C284.93 165.22 285.073 165.139 285.228 165.091C285.384 165.042 285.547 165.028 285.709 165.047C285.87 165.067 286.025 165.121 286.164 165.205C286.303 165.289 286.422 165.402 286.514 165.536C287.699 167.231 288.388 169.221 288.506 171.285C288.625 173.349 288.166 175.405 287.183 177.223C286.199 179.042 284.729 180.551 282.937 181.582C281.145 182.613 279.102 183.125 277.036 183.061H277.023Z" fill="#F0F0F0"/>
<path d="M204.02 298.926L201.246 294.408C199.844 294.617 198.418 294.617 197.015 294.408L194.242 298.926L193.708 298.783C191.91 298.309 190.185 297.595 188.578 296.661L188.109 296.387L189.281 291.466C189.327 291.277 189.446 291.113 189.612 291.011C189.777 290.909 189.977 290.876 190.166 290.919C190.261 290.942 190.351 290.983 190.43 291.041C190.509 291.098 190.576 291.171 190.626 291.254C190.677 291.338 190.711 291.431 190.726 291.527C190.741 291.624 190.736 291.722 190.713 291.817L189.802 295.645C190.996 296.299 192.258 296.823 193.565 297.208L196.273 292.794L196.754 292.872C198.328 293.132 199.933 293.132 201.507 292.872L201.989 292.794L204.71 297.208C206.009 296.815 207.266 296.292 208.459 295.645L207.262 290.619L207.665 290.32C208.76 289.533 209.741 288.6 210.582 287.547C210.696 287.392 210.867 287.289 211.057 287.259C211.248 287.23 211.442 287.277 211.597 287.39C211.677 287.447 211.745 287.52 211.797 287.603C211.849 287.686 211.884 287.779 211.899 287.876C211.915 287.973 211.911 288.072 211.889 288.167C211.866 288.263 211.824 288.353 211.767 288.432C210.937 289.476 209.984 290.416 208.928 291.231L210.23 296.439L209.748 296.713C208.142 297.649 206.417 298.363 204.619 298.835L204.02 298.926ZM187.016 289.044L186.338 288.224L181.13 289.448L180.857 288.979C179.94 287.365 179.244 285.635 178.787 283.836L178.644 283.302L183.162 280.529C182.953 279.126 182.953 277.7 183.162 276.297L178.644 273.524L178.787 272.99C179.259 271.192 179.973 269.466 180.909 267.86L181.183 267.379L186.391 268.681C187.228 267.541 188.203 266.509 189.294 265.608L188.37 261.702C188.346 261.608 188.342 261.51 188.357 261.414C188.372 261.319 188.406 261.227 188.457 261.145C188.508 261.062 188.575 260.991 188.654 260.934C188.733 260.878 188.822 260.838 188.916 260.817C189.106 260.773 189.305 260.807 189.471 260.909C189.637 261.011 189.755 261.174 189.802 261.363L190.974 266.22L190.557 266.519C189.267 267.445 188.136 268.575 187.211 269.866L186.911 270.269L181.886 269.071C181.239 270.265 180.716 271.521 180.323 272.821L184.737 275.529L184.659 276.024C184.525 276.807 184.455 277.599 184.451 278.394C184.455 279.192 184.525 279.989 184.659 280.776L184.737 281.258L180.323 283.966C180.713 285.271 181.237 286.532 181.886 287.729L186.911 286.518L187.211 286.922C187.48 287.307 187.771 287.677 188.083 288.028C188.211 288.164 188.283 288.343 188.283 288.53C188.283 288.716 188.211 288.896 188.083 289.031C188.016 289.105 187.934 289.165 187.843 289.206C187.751 289.247 187.652 289.269 187.552 289.27C187.452 289.271 187.353 289.252 187.26 289.213C187.168 289.174 187.085 289.116 187.016 289.044ZM217.079 289.448L215.178 289.005C215.083 288.982 214.993 288.941 214.914 288.883C214.835 288.825 214.769 288.753 214.718 288.669C214.667 288.586 214.633 288.493 214.618 288.397C214.603 288.3 214.608 288.201 214.631 288.107C214.652 288.012 214.692 287.923 214.749 287.844C214.805 287.765 214.876 287.698 214.959 287.647C215.041 287.596 215.133 287.562 215.229 287.547C215.324 287.532 215.422 287.537 215.516 287.56L216.337 287.755C216.991 286.56 217.515 285.299 217.899 283.992L213.485 281.284L213.563 280.802C213.698 280.015 213.767 279.218 213.772 278.42C213.767 277.625 213.698 276.833 213.563 276.05L213.485 275.555L217.899 272.847C217.512 271.545 216.989 270.288 216.337 269.097L211.311 270.295L211.011 269.892C210.086 268.601 208.956 267.471 207.665 266.545L207.262 266.246L208.459 261.22C207.268 260.568 206.011 260.044 204.71 259.658L201.989 264.072L201.507 263.993C199.933 263.733 198.328 263.733 196.754 263.993L196.273 264.072L193.565 259.658L193.057 259.814C192.875 259.872 192.679 259.857 192.508 259.772C192.338 259.687 192.208 259.538 192.145 259.358C192.11 259.267 192.094 259.17 192.097 259.072C192.101 258.974 192.124 258.878 192.165 258.789C192.206 258.701 192.265 258.621 192.338 258.556C192.41 258.49 192.496 258.44 192.588 258.408L193.708 258.069L194.242 257.939L197.015 262.457C198.418 262.249 199.844 262.249 201.246 262.457L204.02 257.939L204.553 258.069C206.35 258.552 208.075 259.27 209.683 260.205L210.165 260.478L208.863 265.686C209.984 266.553 210.99 267.56 211.858 268.681L217.066 267.379L217.339 267.86C218.275 269.466 218.989 271.192 219.461 272.99L219.605 273.524L215.087 276.297C215.295 277.7 215.295 279.126 215.087 280.529L219.605 283.302L219.461 283.836C218.987 285.633 218.273 287.359 217.339 288.966L217.079 289.448ZM198.929 285.633C197.16 285.511 195.497 284.743 194.259 283.473C193.021 282.204 192.293 280.523 192.216 278.751C192.139 276.979 192.717 275.241 193.84 273.869C194.963 272.496 196.552 271.586 198.304 271.311C198.408 271.3 198.514 271.311 198.614 271.343C198.714 271.375 198.806 271.428 198.884 271.498C198.963 271.568 199.026 271.653 199.069 271.749C199.113 271.844 199.136 271.948 199.137 272.053C199.138 272.233 199.072 272.408 198.952 272.543C198.832 272.677 198.666 272.763 198.486 272.782C197.388 272.908 196.35 273.348 195.496 274.051C194.643 274.753 194.011 275.688 193.677 276.741C193.342 277.795 193.32 278.923 193.612 279.989C193.905 281.055 194.499 282.013 195.324 282.749C196.149 283.485 197.169 283.966 198.262 284.135C199.354 284.304 200.472 284.153 201.481 283.701C202.489 283.249 203.346 282.515 203.946 281.587C204.547 280.659 204.866 279.577 204.866 278.472C204.868 277.296 204.504 276.149 203.824 275.191C203.725 275.043 203.682 274.864 203.704 274.687C203.725 274.51 203.81 274.347 203.942 274.227C204.02 274.157 204.112 274.104 204.213 274.072C204.313 274.04 204.42 274.03 204.524 274.042C204.629 274.054 204.73 274.089 204.82 274.143C204.911 274.198 204.988 274.271 205.048 274.357C205.81 275.453 206.252 276.738 206.327 278.07C206.402 279.402 206.106 280.729 205.472 281.903C204.838 283.077 203.89 284.052 202.735 284.719C201.58 285.387 200.262 285.721 198.929 285.685V285.633Z" fill="#E6E6E6"/>
<path d="M388.5 555.967C527.921 555.967 640.945 549.368 640.945 541.228C640.945 533.088 527.921 526.49 388.5 526.49C249.079 526.49 136.055 533.088 136.055 541.228C136.055 549.368 249.079 555.967 388.5 555.967Z" fill="#F5F5F5"/>
<path d="M536.212 189.871H493.819L463.873 532.622H506.266C512.216 532.507 517.918 530.219 522.298 526.19C526.677 522.161 529.431 516.668 530.04 510.749L556.198 211.731C556.501 208.945 556.208 206.126 555.337 203.463C554.466 200.799 553.038 198.351 551.147 196.283C549.256 194.214 546.946 192.573 544.37 191.467C541.795 190.361 539.014 189.817 536.212 189.871Z" fill="#407BFF"/>
<path d="M527.567 189.871H384.086C378.136 189.982 372.432 192.267 368.05 196.294C363.668 200.321 360.911 205.812 360.299 211.731L334.141 510.749C333.84 513.533 334.134 516.349 335.004 519.011C335.875 521.672 337.301 524.119 339.188 526.187C341.076 528.256 343.381 529.899 345.953 531.009C348.524 532.118 351.301 532.668 354.101 532.622H497.568C503.511 532.495 509.202 530.202 513.573 526.174C517.944 522.146 520.693 516.661 521.304 510.749L547.461 211.731C547.764 208.953 547.473 206.142 546.607 203.485C545.742 200.828 544.322 198.385 542.44 196.318C540.559 194.251 538.261 192.607 535.696 191.496C533.132 190.384 530.361 189.83 527.567 189.871Z" fill="#407BFF"/>
<path opacity="0.3" d="M527.567 189.871H384.086C378.136 189.982 372.432 192.267 368.05 196.294C363.668 200.321 360.911 205.812 360.299 211.731L334.141 510.749C333.84 513.533 334.134 516.349 335.004 519.011C335.875 521.672 337.301 524.119 339.188 526.187C341.076 528.256 343.381 529.899 345.953 531.009C348.524 532.118 351.301 532.668 354.101 532.622H497.568C503.511 532.495 509.202 530.202 513.573 526.174C517.944 522.146 520.693 516.661 521.304 510.749L547.461 211.731C547.764 208.953 547.473 206.142 546.607 203.485C545.742 200.828 544.322 198.385 542.44 196.318C540.559 194.251 538.261 192.607 535.696 191.496C533.132 190.384 530.361 189.83 527.567 189.871Z" fill="white"/>
<path opacity="0.4" d="M526.955 196.875H489.119C487.991 196.885 486.891 197.232 485.963 197.873C485.034 198.513 484.32 199.418 483.911 200.469C482.418 204.331 479.809 207.66 476.417 210.032C473.024 212.405 469.001 213.712 464.862 213.788H442.546C438.648 213.867 434.844 212.584 431.79 210.16C428.736 207.736 426.623 204.322 425.815 200.508C425.6 199.476 425.03 198.552 424.205 197.896C423.38 197.239 422.351 196.892 421.297 196.915H383.474C379.43 196.986 375.553 198.537 372.575 201.275C369.598 204.013 367.727 207.746 367.316 211.77L341.146 510.788C340.937 512.681 341.133 514.597 341.723 516.408C342.313 518.22 343.282 519.884 344.566 521.292C345.85 522.699 347.419 523.816 349.169 524.569C350.918 525.321 352.809 525.692 354.713 525.657H498.194C502.239 525.582 506.117 524.028 509.094 521.288C512.071 518.548 513.941 514.813 514.351 510.788L540.509 211.77C540.722 209.876 540.529 207.958 539.941 206.145C539.354 204.331 538.387 202.664 537.104 201.254C535.821 199.844 534.252 198.724 532.502 197.969C530.752 197.214 528.861 196.841 526.955 196.875Z" fill="white"/>
<path d="M491.202 359.352H390.792C390.101 359.363 389.417 359.228 388.783 358.955C388.149 358.681 387.581 358.276 387.115 357.767C386.65 357.257 386.298 356.654 386.084 355.998C385.869 355.342 385.796 354.648 385.87 353.962L386.378 348.207C386.527 346.748 387.205 345.394 388.285 344.401C389.364 343.408 390.77 342.844 392.237 342.817H492.66C493.35 342.805 494.035 342.941 494.669 343.214C495.302 343.488 495.871 343.892 496.336 344.402C496.802 344.912 497.153 345.515 497.368 346.171C497.583 346.827 497.656 347.521 497.582 348.207L497.087 353.962C496.934 355.424 496.251 356.78 495.167 357.773C494.083 358.767 492.672 359.328 491.202 359.352Z" fill="white"/>
<path d="M489.04 384.09H388.617C387.928 384.102 387.243 383.966 386.61 383.693C385.977 383.419 385.409 383.014 384.945 382.504C384.48 381.994 384.13 381.391 383.917 380.735C383.704 380.079 383.633 379.385 383.709 378.7L384.203 372.945C384.355 371.487 385.035 370.134 386.114 369.142C387.192 368.149 388.597 367.585 390.062 367.555H490.486C491.176 367.543 491.86 367.679 492.494 367.952C493.128 368.225 493.696 368.63 494.162 369.14C494.627 369.65 494.979 370.253 495.194 370.909C495.408 371.565 495.481 372.259 495.407 372.945L494.899 378.7C494.747 380.158 494.068 381.51 492.989 382.503C491.91 383.495 490.506 384.06 489.04 384.09Z" fill="white"/>
<path opacity="0.1" d="M460.696 202.474C460.53 204.094 459.776 205.598 458.576 206.699C457.377 207.801 455.814 208.424 454.186 208.45C453.42 208.464 452.661 208.315 451.958 208.012C451.255 207.709 450.624 207.26 450.108 206.695C449.592 206.13 449.202 205.461 448.964 204.733C448.727 204.005 448.647 203.235 448.731 202.474C448.896 200.854 449.65 199.35 450.85 198.249C452.05 197.148 453.612 196.525 455.241 196.498C456.006 196.484 456.766 196.634 457.469 196.936C458.172 197.239 458.803 197.688 459.319 198.253C459.835 198.819 460.225 199.487 460.462 200.215C460.7 200.943 460.779 201.713 460.696 202.474Z" fill="black"/>
<path opacity="0.1" d="M457.988 202.474C457.896 203.359 457.484 204.179 456.829 204.781C456.174 205.383 455.322 205.725 454.433 205.742C454.015 205.75 453.599 205.669 453.214 205.504C452.83 205.338 452.485 205.093 452.202 204.783C451.92 204.474 451.707 204.108 451.578 203.71C451.448 203.312 451.405 202.89 451.452 202.474C451.541 201.589 451.952 200.767 452.607 200.164C453.263 199.562 454.116 199.221 455.006 199.206C455.424 199.2 455.839 199.283 456.223 199.449C456.606 199.615 456.95 199.86 457.232 200.169C457.514 200.478 457.727 200.843 457.857 201.241C457.988 201.638 458.032 202.058 457.988 202.474Z" fill="black"/>
<g opacity="0.8">
<path d="M509.287 212.447C509.062 212.451 508.839 212.406 508.633 212.317C508.427 212.227 508.242 212.095 508.09 211.929C507.939 211.763 507.825 211.566 507.755 211.353C507.685 211.139 507.661 210.913 507.685 210.69L507.972 207.487C508.019 207.014 508.239 206.574 508.59 206.253C508.94 205.931 509.397 205.749 509.872 205.742C510.096 205.739 510.318 205.784 510.523 205.872C510.728 205.961 510.912 206.092 511.063 206.256C511.215 206.421 511.329 206.616 511.4 206.828C511.471 207.04 511.496 207.264 511.474 207.487L511.188 210.69C511.14 211.164 510.92 211.605 510.57 211.929C510.22 212.253 509.763 212.437 509.287 212.447Z" fill="white"/>
<path d="M523.296 212.447C523.071 212.451 522.849 212.406 522.642 212.317C522.436 212.227 522.251 212.095 522.1 211.929C521.948 211.763 521.834 211.566 521.764 211.353C521.694 211.139 521.671 210.913 521.695 210.69L522.359 203.177C522.406 202.704 522.627 202.265 522.977 201.943C523.327 201.621 523.784 201.44 524.26 201.433C524.483 201.43 524.705 201.474 524.91 201.563C525.115 201.651 525.299 201.782 525.45 201.947C525.602 202.111 525.716 202.306 525.787 202.518C525.858 202.73 525.883 202.955 525.861 203.177L525.197 210.69C525.149 211.164 524.93 211.605 524.58 211.929C524.229 212.253 523.773 212.437 523.296 212.447Z" fill="white"/>
<path d="M516.291 212.447C516.067 212.451 515.844 212.406 515.638 212.317C515.431 212.227 515.246 212.095 515.095 211.929C514.944 211.763 514.829 211.566 514.759 211.353C514.69 211.139 514.666 210.913 514.69 210.69L515.159 205.339C515.206 204.862 515.428 204.419 515.781 204.095C516.134 203.771 516.593 203.588 517.073 203.581C517.297 203.577 517.519 203.622 517.725 203.712C517.93 203.801 518.115 203.933 518.265 204.1C518.415 204.266 518.528 204.463 518.597 204.676C518.665 204.89 518.687 205.116 518.661 205.339L518.192 210.69C518.145 211.164 517.925 211.605 517.575 211.929C517.225 212.253 516.768 212.437 516.291 212.447Z" fill="white"/>
</g>
<g opacity="0.8">
<path d="M389.333 212.447H380.532C380.405 212.45 380.279 212.426 380.163 212.376C380.047 212.326 379.942 212.251 379.857 212.157C379.772 212.064 379.708 211.953 379.669 211.832C379.631 211.711 379.618 211.584 379.633 211.458L380.037 206.732C380.066 206.463 380.191 206.215 380.39 206.032C380.589 205.85 380.848 205.747 381.118 205.742H389.919C390.046 205.739 390.172 205.764 390.288 205.814C390.404 205.864 390.509 205.938 390.594 206.032C390.679 206.126 390.743 206.237 390.782 206.358C390.82 206.478 390.832 206.606 390.818 206.732L390.401 211.458C390.378 211.726 390.256 211.976 390.059 212.159C389.861 212.342 389.603 212.445 389.333 212.447Z" fill="white"/>
<path d="M393.409 211.158C393.281 211.161 393.155 211.136 393.038 211.087C392.921 211.037 392.816 210.962 392.73 210.869C392.644 210.775 392.579 210.665 392.538 210.544C392.498 210.423 392.484 210.295 392.497 210.169L392.692 208.008C392.718 207.738 392.843 207.488 393.043 207.305C393.242 207.122 393.502 207.02 393.773 207.018C393.9 207.015 394.026 207.04 394.142 207.09C394.258 207.14 394.363 207.214 394.448 207.308C394.533 207.402 394.597 207.513 394.636 207.634C394.674 207.754 394.686 207.882 394.671 208.008L394.489 210.169C394.461 210.437 394.335 210.686 394.136 210.868C393.937 211.05 393.678 211.154 393.409 211.158Z" fill="white"/>
</g>
<path d="M474.657 321.504C492.177 304.732 493.924 278.124 478.559 262.073C463.194 246.023 436.535 246.608 419.015 263.38C401.494 280.152 399.747 306.76 415.112 322.811C430.477 338.861 457.136 338.276 474.657 321.504Z" fill="white"/>
<path d="M446.986 290.841C435.945 290.841 426.61 295.046 425.815 304.173L424.93 314.316H464.94L465.826 304.173C466.62 295.046 458.04 290.841 446.986 290.841Z" fill="#407BFF"/>
<path d="M447.35 286.661C452.48 286.661 454.85 282.508 455.293 277.378C455.735 272.248 454.108 268.095 448.978 268.095C443.848 268.095 441.491 272.261 441.036 277.378C440.58 282.495 442.221 286.661 447.35 286.661Z" fill="#407BFF"/>
<path d="M486.619 350.733C483.898 350.733 481.593 351.774 481.411 354.027L481.189 356.54H491.072L491.293 354.027C491.475 351.774 489.353 350.733 486.619 350.733Z" fill="#407BFF"/>
<path d="M486.71 349.704C488.012 349.704 488.559 348.676 488.676 347.413C488.793 346.15 488.376 345.121 487.113 345.121C485.85 345.121 485.265 346.15 485.147 347.413C485.03 348.676 485.447 349.704 486.71 349.704Z" fill="#407BFF"/>
<path d="M456.204 408.828H417.144C416.085 408.847 415.034 408.641 414.061 408.222C413.088 407.804 412.215 407.182 411.5 406.4C410.786 405.618 410.246 404.693 409.917 403.686C409.588 402.679 409.478 401.614 409.592 400.56C409.824 398.322 410.867 396.245 412.524 394.722C414.182 393.199 416.339 392.335 418.589 392.293H457.649C458.708 392.276 459.758 392.484 460.73 392.903C461.702 393.322 462.574 393.943 463.288 394.725C464.002 395.507 464.542 396.431 464.871 397.437C465.201 398.443 465.313 399.508 465.201 400.56C464.972 402.8 463.93 404.879 462.272 406.402C460.614 407.926 458.455 408.789 456.204 408.828Z" fill="#407BFF"/>
<path d="M451.478 501.036H409.671C408.549 501.066 407.434 500.855 406.402 500.415C405.369 499.976 404.443 499.32 403.687 498.491C402.931 497.662 402.363 496.68 402.02 495.611C401.677 494.543 401.569 493.413 401.702 492.299L404.371 461.806C404.61 459.441 405.708 457.245 407.457 455.635C409.207 454.025 411.486 453.112 413.863 453.07H455.683C456.802 453.05 457.912 453.269 458.939 453.712C459.966 454.155 460.888 454.811 461.641 455.638C462.395 456.464 462.964 457.442 463.311 458.506C463.658 459.569 463.774 460.694 463.651 461.806L460.982 492.299C460.738 494.665 459.636 496.859 457.886 498.469C456.135 500.078 453.855 500.991 451.478 501.036Z" fill="#407BFF"/>
<g opacity="0.6">
<path d="M438.588 469.501C438.656 468.836 438.583 468.163 438.372 467.529C438.161 466.894 437.817 466.311 437.365 465.819C436.912 465.326 436.359 464.936 435.744 464.673C435.129 464.41 434.465 464.281 433.797 464.293C432.372 464.314 431.005 464.855 429.952 465.814C428.899 466.773 428.233 468.085 428.081 469.501C427.998 470.293 428.115 471.094 428.423 471.828C428.73 472.563 429.217 473.209 429.839 473.707L428.927 484.214C428.883 484.612 428.923 485.015 429.047 485.396C429.171 485.777 429.375 486.127 429.645 486.423C429.914 486.718 430.245 486.953 430.613 487.111C430.981 487.269 431.378 487.347 431.778 487.339C432.627 487.321 433.439 486.993 434.063 486.418C434.687 485.842 435.078 485.058 435.164 484.214L436.088 473.707C436.786 473.23 437.371 472.606 437.803 471.88C438.234 471.154 438.502 470.342 438.588 469.501Z" fill="white"/>
</g>
<path d="M456.048 459.424H450.657L451.959 444.334C452.187 442.239 451.966 440.121 451.312 438.118C450.658 436.115 449.586 434.275 448.166 432.718C446.746 431.162 445.012 429.925 443.078 429.091C441.143 428.256 439.054 427.842 436.947 427.876C432.471 427.964 428.181 429.685 424.886 432.717C421.591 435.748 419.518 439.88 419.058 444.334L417.756 459.424H412.366L413.668 444.334C414.274 438.423 417.023 432.939 421.396 428.916C425.769 424.894 431.463 422.611 437.403 422.499C440.199 422.451 442.973 422.999 445.541 424.106C448.109 425.212 450.412 426.853 452.297 428.918C454.183 430.983 455.607 433.426 456.476 436.083C457.345 438.741 457.638 441.554 457.337 444.334L456.048 459.424Z" fill="#407BFF"/>
<path d="M487.283 373.843L487.452 372.372C487.487 372.031 487.449 371.687 487.342 371.361C487.234 371.036 487.059 370.736 486.828 370.483C486.597 370.23 486.315 370.029 486.001 369.892C485.687 369.755 485.347 369.686 485.004 369.69C484.275 369.705 483.576 369.986 483.039 370.48C482.502 370.974 482.164 371.646 482.088 372.372L481.958 373.817C481.666 373.825 481.387 373.94 481.174 374.139C480.961 374.338 480.827 374.608 480.799 374.898L480.46 378.804C480.443 378.94 480.456 379.079 480.498 379.21C480.539 379.341 480.609 379.462 480.702 379.563C480.795 379.665 480.909 379.745 481.036 379.798C481.162 379.851 481.299 379.876 481.437 379.872H486.801C487.091 379.867 487.37 379.755 487.584 379.558C487.797 379.361 487.931 379.093 487.96 378.804L488.298 374.898C488.31 374.76 488.291 374.621 488.245 374.491C488.198 374.36 488.124 374.241 488.028 374.142C487.932 374.042 487.816 373.964 487.688 373.912C487.559 373.861 487.421 373.837 487.283 373.843ZM484.848 370.38C485.106 370.377 485.362 370.428 485.599 370.531C485.837 370.634 486.049 370.785 486.224 370.976C486.398 371.166 486.531 371.391 486.612 371.636C486.694 371.881 486.723 372.141 486.697 372.398L486.567 373.843H482.53L482.661 372.398C482.717 371.853 482.971 371.348 483.374 370.976C483.776 370.605 484.3 370.393 484.848 370.38Z" fill="#407BFF"/>
<path d="M406.533 375.393L404.658 375.002C404.606 374.991 404.556 374.969 404.514 374.937C404.472 374.904 404.438 374.862 404.414 374.815C404.39 374.767 404.377 374.715 404.377 374.661C404.376 374.608 404.388 374.555 404.41 374.507L405.192 372.658C405.224 372.579 405.227 372.49 405.2 372.408C405.174 372.326 405.119 372.256 405.045 372.211C404.972 372.165 404.885 372.148 404.8 372.161C404.714 372.173 404.636 372.216 404.58 372.281L403.161 373.739C403.126 373.782 403.083 373.817 403.033 373.842C402.984 373.866 402.929 373.878 402.874 373.878C402.819 373.878 402.764 373.866 402.715 373.842C402.665 373.817 402.622 373.782 402.588 373.739L401.429 372.281C401.181 371.968 400.648 372.281 400.739 372.658L401.194 374.507C401.208 374.561 401.21 374.617 401.2 374.672C401.191 374.727 401.17 374.779 401.14 374.826C401.109 374.872 401.069 374.912 401.023 374.942C400.976 374.973 400.924 374.993 400.869 375.002L398.929 375.393C398.512 375.471 398.46 376.057 398.864 376.135L400.739 376.525C400.791 376.535 400.841 376.557 400.883 376.59C400.925 376.623 400.959 376.665 400.982 376.713C401.005 376.761 401.016 376.814 401.014 376.868C401.013 376.921 400.999 376.973 400.973 377.02L400.218 378.882C400.185 378.962 400.182 379.051 400.209 379.133C400.236 379.215 400.291 379.284 400.364 379.33C400.438 379.375 400.525 379.393 400.61 379.38C400.695 379.367 400.773 379.324 400.83 379.26L402.249 377.801C402.286 377.762 402.33 377.73 402.379 377.709C402.429 377.687 402.482 377.676 402.536 377.676C402.589 377.676 402.643 377.687 402.692 377.709C402.741 377.73 402.785 377.762 402.822 377.801L403.981 379.26C404.228 379.572 404.762 379.26 404.658 378.882L404.202 377.033C404.183 376.923 404.208 376.809 404.271 376.717C404.334 376.625 404.431 376.56 404.541 376.538L406.481 376.148C406.884 376.057 406.936 375.471 406.533 375.393Z" fill="#263238"/>
<path d="M418.85 375.393L416.975 375.002C416.923 374.991 416.873 374.969 416.831 374.937C416.789 374.904 416.755 374.862 416.731 374.815C416.707 374.767 416.694 374.715 416.694 374.661C416.693 374.608 416.705 374.555 416.727 374.507L417.509 372.658C417.541 372.579 417.544 372.49 417.517 372.408C417.491 372.326 417.436 372.256 417.362 372.211C417.289 372.165 417.202 372.148 417.117 372.161C417.031 372.173 416.953 372.216 416.897 372.281L415.477 373.739C415.443 373.782 415.4 373.817 415.35 373.842C415.301 373.866 415.246 373.878 415.191 373.878C415.136 373.878 415.081 373.866 415.032 373.842C414.982 373.817 414.939 373.782 414.905 373.739L413.746 372.281C413.498 371.968 412.965 372.281 413.069 372.658L413.524 374.507C413.536 374.562 413.536 374.619 413.525 374.673C413.514 374.728 413.492 374.78 413.46 374.827C413.429 374.873 413.388 374.912 413.341 374.942C413.294 374.972 413.241 374.993 413.186 375.002L411.246 375.393C410.829 375.471 410.777 376.057 411.181 376.135L413.056 376.525C413.108 376.536 413.157 376.558 413.199 376.591C413.242 376.623 413.276 376.665 413.3 376.713C413.324 376.76 413.336 376.813 413.337 376.866C413.337 376.919 413.326 376.972 413.303 377.02L412.522 378.869C412.489 378.949 412.486 379.038 412.513 379.12C412.54 379.202 412.595 379.271 412.668 379.317C412.742 379.362 412.829 379.38 412.914 379.367C412.999 379.354 413.077 379.311 413.134 379.247L414.553 377.788C414.59 377.749 414.634 377.717 414.683 377.696C414.732 377.674 414.786 377.663 414.839 377.663C414.893 377.663 414.946 377.674 414.996 377.696C415.045 377.717 415.089 377.749 415.126 377.788L416.285 379.247C416.532 379.559 417.066 379.247 416.975 378.869L416.519 377.02C416.508 376.966 416.507 376.911 416.517 376.857C416.527 376.802 416.548 376.751 416.579 376.705C416.609 376.659 416.648 376.619 416.694 376.588C416.739 376.558 416.791 376.536 416.845 376.525L418.785 376.135C419.201 376.057 419.253 375.471 418.85 375.393Z" fill="#263238"/>
<path d="M431.166 375.393L429.305 375.002C429.251 374.994 429.2 374.973 429.156 374.941C429.113 374.909 429.077 374.867 429.053 374.819C429.029 374.77 429.016 374.717 429.017 374.663C429.018 374.608 429.032 374.555 429.057 374.507L429.838 372.659C429.889 372.576 429.904 372.476 429.88 372.382C429.857 372.288 429.798 372.207 429.715 372.157C429.632 372.107 429.532 372.092 429.438 372.115C429.344 372.138 429.264 372.198 429.213 372.281L427.807 373.739C427.772 373.783 427.727 373.818 427.677 373.842C427.626 373.866 427.57 373.879 427.514 373.879C427.458 373.879 427.403 373.866 427.352 373.842C427.302 373.818 427.257 373.783 427.221 373.739L426.063 372.281C425.815 371.968 425.281 372.281 425.386 372.659L425.841 374.507C425.853 374.561 425.853 374.617 425.843 374.671C425.833 374.725 425.812 374.777 425.782 374.823C425.752 374.869 425.712 374.908 425.667 374.939C425.621 374.97 425.57 374.991 425.516 375.002L423.576 375.393C423.159 375.471 423.107 376.057 423.511 376.135L425.373 376.525C425.425 376.536 425.474 376.559 425.516 376.591C425.558 376.623 425.593 376.665 425.617 376.713C425.64 376.76 425.653 376.813 425.654 376.866C425.654 376.919 425.643 376.972 425.62 377.02L424.839 378.869C424.789 378.952 424.774 379.051 424.797 379.145C424.82 379.239 424.88 379.32 424.962 379.37C425.045 379.42 425.145 379.435 425.239 379.412C425.333 379.389 425.414 379.33 425.464 379.247L426.87 377.788C426.906 377.749 426.951 377.718 427 377.696C427.049 377.674 427.103 377.663 427.156 377.663C427.21 377.663 427.263 377.674 427.313 377.696C427.362 377.718 427.406 377.749 427.443 377.788L428.615 379.247C428.862 379.559 429.396 379.247 429.292 378.869L428.836 377.02C428.816 376.912 428.839 376.8 428.9 376.708C428.96 376.616 429.054 376.55 429.161 376.525L431.101 376.135C431.466 376.057 431.57 375.471 431.166 375.393Z" fill="#263238"/>
<path d="M443.496 375.393L441.622 375.002C441.569 374.991 441.52 374.969 441.478 374.937C441.436 374.904 441.401 374.862 441.378 374.815C441.354 374.767 441.341 374.715 441.34 374.661C441.34 374.608 441.351 374.555 441.374 374.507L442.155 372.658C442.188 372.579 442.191 372.49 442.164 372.408C442.137 372.326 442.083 372.256 442.009 372.211C441.936 372.165 441.849 372.148 441.764 372.161C441.678 372.173 441.6 372.216 441.543 372.281L440.124 373.739C440.09 373.782 440.047 373.817 439.997 373.842C439.947 373.866 439.893 373.878 439.838 373.878C439.783 373.878 439.728 373.866 439.679 373.842C439.629 373.817 439.586 373.782 439.551 373.739L438.393 372.281C438.145 371.968 437.611 372.281 437.703 372.658L438.158 374.507C438.172 374.561 438.174 374.617 438.164 374.672C438.155 374.727 438.134 374.779 438.104 374.826C438.073 374.872 438.033 374.912 437.987 374.942C437.94 374.973 437.888 374.993 437.833 375.002L435.893 375.393C435.476 375.471 435.424 376.057 435.893 376.135L437.768 376.525C437.82 376.535 437.869 376.557 437.912 376.59C437.954 376.623 437.988 376.665 438.011 376.713C438.034 376.761 438.045 376.814 438.043 376.868C438.042 376.921 438.028 376.973 438.002 377.02L437.234 378.869C437.201 378.949 437.198 379.038 437.225 379.12C437.252 379.202 437.307 379.271 437.38 379.317C437.453 379.362 437.541 379.38 437.626 379.367C437.711 379.354 437.789 379.311 437.846 379.247L439.265 377.788C439.302 377.749 439.346 377.717 439.395 377.696C439.444 377.674 439.498 377.663 439.551 377.663C439.605 377.663 439.658 377.674 439.708 377.696C439.757 377.717 439.801 377.749 439.838 377.788L440.997 379.247C441.244 379.559 441.778 379.247 441.674 378.869L441.218 377.02C441.199 376.91 441.223 376.796 441.287 376.704C441.35 376.612 441.447 376.547 441.556 376.525L443.496 376.135C443.848 376.057 443.9 375.471 443.496 375.393Z" fill="#263238"/>
<path d="M455.813 375.393L453.939 375.002C453.886 374.991 453.837 374.969 453.795 374.937C453.753 374.904 453.718 374.862 453.694 374.815C453.671 374.767 453.658 374.715 453.657 374.661C453.657 374.608 453.668 374.555 453.691 374.507L454.472 372.658C454.505 372.579 454.508 372.49 454.481 372.408C454.454 372.326 454.399 372.256 454.326 372.211C454.253 372.165 454.166 372.148 454.08 372.161C453.995 372.173 453.917 372.216 453.86 372.281L452.441 373.739C452.407 373.782 452.364 373.817 452.314 373.842C452.264 373.866 452.21 373.878 452.155 373.878C452.1 373.878 452.045 373.866 451.996 373.842C451.946 373.817 451.902 373.782 451.868 373.739L450.71 372.281C450.462 371.968 449.928 372.281 450.033 372.658L450.488 374.507C450.499 374.562 450.5 374.619 450.489 374.673C450.478 374.728 450.456 374.78 450.424 374.827C450.392 374.873 450.352 374.912 450.305 374.942C450.258 374.972 450.205 374.993 450.15 375.002L448.21 375.393C447.793 375.471 447.741 376.057 448.145 376.135L450.019 376.525C450.072 376.536 450.121 376.558 450.163 376.591C450.205 376.623 450.24 376.665 450.264 376.713C450.287 376.76 450.3 376.813 450.301 376.866C450.301 376.919 450.29 376.972 450.267 377.02L449.486 378.869C449.453 378.949 449.45 379.038 449.477 379.12C449.504 379.202 449.559 379.271 449.632 379.317C449.705 379.362 449.792 379.38 449.878 379.367C449.963 379.354 450.041 379.311 450.098 379.247L451.517 377.788C451.553 377.749 451.598 377.717 451.647 377.696C451.696 377.674 451.749 377.663 451.803 377.663C451.857 377.663 451.91 377.674 451.959 377.696C452.009 377.717 452.053 377.749 452.09 377.788L453.248 379.247C453.496 379.559 454.03 379.247 453.939 378.869L453.483 377.02C453.471 376.966 453.471 376.911 453.481 376.857C453.491 376.802 453.512 376.751 453.542 376.705C453.573 376.659 453.612 376.619 453.657 376.588C453.703 376.558 453.754 376.536 453.808 376.525L455.748 376.135C456.204 376.057 456.204 375.471 455.813 375.393Z" fill="#263238"/>
<path d="M468.13 375.393L466.255 375.002C466.203 374.992 466.154 374.97 466.111 374.937C466.069 374.905 466.035 374.863 466.012 374.814C465.989 374.766 465.978 374.713 465.98 374.66C465.981 374.607 465.996 374.554 466.021 374.507L466.802 372.659C466.827 372.618 466.844 372.572 466.851 372.525C466.858 372.477 466.856 372.429 466.844 372.382C466.833 372.336 466.812 372.292 466.784 372.253C466.755 372.215 466.72 372.182 466.679 372.157C466.638 372.132 466.592 372.116 466.545 372.109C466.497 372.102 466.449 372.104 466.402 372.115C466.356 372.127 466.312 372.147 466.273 372.176C466.235 372.204 466.202 372.24 466.177 372.281L464.771 373.739C464.736 373.783 464.691 373.818 464.64 373.842C464.59 373.866 464.534 373.879 464.478 373.879C464.422 373.879 464.367 373.866 464.316 373.842C464.265 373.818 464.221 373.783 464.185 373.739L463.026 372.281C462.779 371.968 462.245 372.281 462.349 372.659L462.805 374.507C462.817 374.561 462.817 374.617 462.807 374.671C462.797 374.725 462.776 374.777 462.746 374.823C462.715 374.869 462.676 374.908 462.631 374.939C462.585 374.97 462.534 374.991 462.48 375.002L460.54 375.393C460.123 375.471 460.071 376.057 460.475 376.135L462.336 376.526C462.389 376.536 462.438 376.559 462.48 376.591C462.522 376.623 462.557 376.665 462.58 376.713C462.604 376.76 462.617 376.813 462.618 376.866C462.618 376.919 462.607 376.972 462.584 377.02L461.803 378.869C461.753 378.952 461.737 379.051 461.761 379.145C461.784 379.239 461.843 379.32 461.926 379.37C462.009 379.42 462.109 379.436 462.203 379.412C462.297 379.389 462.377 379.33 462.428 379.247L463.834 377.788C463.87 377.749 463.915 377.718 463.964 377.696C464.013 377.675 464.066 377.663 464.12 377.663C464.174 377.663 464.227 377.675 464.276 377.696C464.326 377.718 464.37 377.749 464.407 377.788L465.565 379.247C465.626 379.315 465.708 379.36 465.798 379.376C465.888 379.392 465.981 379.376 466.061 379.332C466.141 379.289 466.204 379.219 466.239 379.135C466.274 379.051 466.28 378.957 466.255 378.869L465.8 377.02C465.78 376.912 465.803 376.8 465.864 376.708C465.924 376.616 466.018 376.55 466.125 376.526L468.065 376.135C468.482 376.057 468.534 375.471 468.13 375.393Z" fill="#263238"/>
<path d="M438.432 348.428H415.308C414.599 348.44 413.918 348.712 413.395 349.192C412.872 349.672 412.543 350.326 412.47 351.032C412.433 351.364 412.467 351.701 412.57 352.019C412.674 352.337 412.844 352.629 413.07 352.875C413.296 353.122 413.571 353.317 413.879 353.449C414.186 353.58 414.518 353.644 414.852 353.636H437.976C438.686 353.624 439.366 353.352 439.889 352.873C440.412 352.393 440.741 351.738 440.814 351.032C440.849 350.7 440.814 350.365 440.709 350.048C440.605 349.731 440.435 349.44 440.209 349.194C439.984 348.948 439.709 348.752 439.403 348.62C439.096 348.488 438.765 348.423 438.432 348.428Z" fill="#263238"/>
<path d="M461.92 348.428H448.496C447.788 348.441 447.109 348.713 446.588 349.193C446.067 349.673 445.741 350.327 445.671 351.032C445.634 351.363 445.668 351.699 445.77 352.016C445.873 352.332 446.042 352.624 446.267 352.87C446.491 353.117 446.765 353.313 447.071 353.445C447.377 353.577 447.707 353.642 448.041 353.636H461.412C462.12 353.624 462.799 353.352 463.32 352.872C463.841 352.392 464.167 351.737 464.237 351.032C464.274 350.706 464.241 350.375 464.142 350.061C464.042 349.748 463.878 349.459 463.659 349.214C463.44 348.968 463.173 348.771 462.873 348.636C462.573 348.501 462.249 348.43 461.92 348.428Z" fill="#263238"/>
<path d="M479.64 466.455C471.467 469.568 464.089 474.46 458.04 480.777C454.367 477.925 449.988 476.125 445.371 475.569L444.759 475.478L444.499 478.55L444.838 478.68C449.901 480.545 454.183 484.069 456.985 488.68L457.428 489.409L457.91 488.628C463.302 480.02 470.911 473.022 479.939 468.369L480.239 468.212L480.408 466.181L479.64 466.455Z" fill="#263238"/>
<path opacity="0.2" d="M363.293 210.104C361.634 213.001 360.613 216.219 360.299 219.543L340.912 441.17H400.908L412.965 394.962L408.993 348.741L421.05 302.533L417.144 256.325L429.201 210.104H363.293Z" fill="black"/>
<path d="M411.871 243.305L423.927 197.084H272.205L260.162 243.305L264.12 289.513L252.076 335.721L256.035 381.942L243.991 428.15H395.7L407.757 381.942L403.785 335.721L415.842 289.513L411.871 243.305Z" fill="#407BFF"/>
<path opacity="0.7" d="M411.871 243.305L423.927 197.084H272.205L260.162 243.305L264.12 289.513L252.076 335.721L256.035 381.942L243.991 428.15H395.7L407.757 381.942L403.785 335.721L415.842 289.513L411.871 243.305Z" fill="white"/>
<path opacity="0.5" d="M411.871 243.305H260.162L272.205 197.084H423.927L411.871 243.305Z" fill="white"/>
<path opacity="0.5" d="M403.785 335.721H252.076L264.12 289.513H415.842L403.785 335.721Z" fill="white"/>
<path opacity="0.5" d="M395.7 428.15H243.978L256.035 381.942H407.757L395.7 428.15Z" fill="white"/>
<path opacity="0.2" d="M391.573 262.613C390.016 263.063 388.402 263.283 386.781 263.264C384.584 263.362 382.397 262.914 380.415 261.962C380.056 261.75 379.647 261.637 379.23 261.637C378.847 261.642 378.472 261.74 378.136 261.923H378.058C377.476 262.25 376.855 262.499 376.209 262.665C374.752 263.05 373.25 263.238 371.743 263.225C371.288 263.225 370.845 263.225 370.441 263.225C369.272 263.15 368.115 262.945 366.991 262.613C366.826 262.564 366.655 262.534 366.483 262.522C366.197 262.499 365.909 262.535 365.637 262.628C365.365 262.722 365.116 262.87 364.904 263.065C364.693 263.259 364.524 263.495 364.408 263.758C364.292 264.021 364.232 264.305 364.231 264.592V265.999H305.172C304.087 265.999 303.012 266.212 302.01 266.628C301.008 267.044 300.097 267.653 299.33 268.421C298.564 269.189 297.956 270.1 297.542 271.103C297.128 272.106 296.916 273.181 296.917 274.266V282.586C296.914 283.672 297.125 284.748 297.538 285.753C297.952 286.757 298.559 287.671 299.326 288.44C300.093 289.209 301.004 289.819 302.007 290.236C303.01 290.652 304.086 290.867 305.172 290.867H372.264H372.707C373.423 291.466 374.178 292.065 374.985 292.676C375.792 293.288 376.938 294.135 377.993 294.89C378.353 295.15 378.786 295.291 379.23 295.291C379.674 295.291 380.107 295.15 380.467 294.89C388.904 288.771 394.32 284.552 394.32 272.964V264.631C394.324 264.298 394.249 263.969 394.1 263.671C393.951 263.372 393.733 263.114 393.465 262.916C393.196 262.719 392.885 262.589 392.555 262.536C392.226 262.483 391.89 262.51 391.573 262.613Z" fill="black"/>
<path d="M370.975 261.429H303.896C299.33 261.429 295.628 265.13 295.628 269.696V278.016C295.628 282.582 299.33 286.284 303.896 286.284H370.975C375.541 286.284 379.243 282.582 379.243 278.016V269.696C379.243 265.13 375.541 261.429 370.975 261.429Z" fill="#407BFF"/>
<path d="M385.492 258.681C383.296 258.775 381.109 258.328 379.126 257.379C378.773 257.163 378.368 257.048 377.954 257.048C377.54 257.048 377.135 257.163 376.782 257.379C374.794 258.33 372.603 258.777 370.402 258.681C368.782 258.699 367.168 258.479 365.611 258.03C365.297 257.925 364.963 257.896 364.636 257.945C364.308 257.994 363.998 258.121 363.729 258.315C363.461 258.508 363.242 258.763 363.092 259.057C362.941 259.352 362.863 259.678 362.864 260.009V268.342C362.864 279.943 368.28 284.161 376.717 290.281C377.077 290.541 377.51 290.682 377.954 290.682C378.398 290.682 378.831 290.541 379.191 290.281C387.628 284.161 393.044 279.943 393.044 268.342V260.009C393.043 259.678 392.963 259.351 392.81 259.057C392.658 258.762 392.439 258.508 392.169 258.315C391.9 258.122 391.589 257.995 391.261 257.946C390.933 257.896 390.598 257.925 390.284 258.03C388.727 258.48 387.113 258.699 385.492 258.681Z" fill="#407BFF"/>
<path opacity="0.3" d="M385.492 258.681C383.296 258.775 381.109 258.328 379.126 257.379C378.773 257.163 378.368 257.048 377.954 257.048C377.54 257.048 377.135 257.163 376.782 257.379C374.794 258.33 372.603 258.777 370.402 258.681C368.782 258.699 367.168 258.479 365.611 258.03C365.297 257.925 364.963 257.896 364.636 257.945C364.308 257.994 363.998 258.121 363.729 258.315C363.461 258.508 363.242 258.763 363.092 259.057C362.941 259.352 362.863 259.678 362.864 260.009V268.342C362.864 279.943 368.28 284.161 376.717 290.281C377.077 290.541 377.51 290.682 377.954 290.682C378.398 290.682 378.831 290.541 379.191 290.281C387.628 284.161 393.044 279.943 393.044 268.342V260.009C393.043 259.678 392.963 259.351 392.81 259.057C392.658 258.762 392.439 258.508 392.169 258.315C391.9 258.122 391.589 257.995 391.261 257.946C390.933 257.896 390.598 257.925 390.284 258.03C388.727 258.48 387.113 258.699 385.492 258.681Z" fill="white"/>
<path opacity="0.2" d="M376.782 257.353C374.794 258.304 372.603 258.751 370.402 258.655C368.782 258.672 367.168 258.452 365.611 258.004C365.297 257.899 364.963 257.87 364.636 257.919C364.308 257.968 363.998 258.095 363.729 258.289C363.461 258.482 363.242 258.737 363.092 259.031C362.941 259.326 362.863 259.652 362.864 259.983V268.316C362.864 279.917 368.28 284.135 376.717 290.255C377.095 290.529 377.552 290.671 378.019 290.658V257.015C377.583 257.006 377.153 257.124 376.782 257.353Z" fill="white"/>
<path d="M390.049 266.077C384.974 268.065 380.454 271.25 376.873 275.36C374.376 273.519 371.449 272.349 368.371 271.962H367.967V273.954L368.189 274.032C371.612 275.267 374.563 277.544 376.626 280.542L376.951 281.011L377.225 280.503C380.218 274.94 384.776 270.377 390.336 267.379L390.531 267.288V265.986L390.049 266.077Z" fill="#263238"/>
<path d="M421.245 210.091H415.49C414.75 210.104 414.015 209.96 413.335 209.667C412.655 209.375 412.045 208.94 411.546 208.393C411.047 207.846 410.67 207.199 410.441 206.495C410.212 205.791 410.136 205.046 410.217 204.31L410.725 198.555C410.881 196.99 411.607 195.537 412.763 194.471C413.92 193.405 415.428 192.801 417.001 192.774H422.756C423.497 192.758 424.233 192.901 424.915 193.193C425.597 193.485 426.208 193.919 426.709 194.466C427.209 195.014 427.587 195.662 427.817 196.367C428.047 197.072 428.123 197.818 428.042 198.555L427.534 204.31C427.359 205.87 426.626 207.314 425.47 208.376C424.315 209.438 422.814 210.047 421.245 210.091Z" fill="#407BFF"/>
<path d="M423.641 198.542L422.391 197.162L419.24 200.052L416.61 197.162L415.113 198.542L417.756 201.432L414.618 204.323L415.868 205.69L419.006 202.799L421.649 205.69L423.133 204.323L420.49 201.432L423.641 198.542Z" fill="white"/>
<path d="M292.634 259.736C295.967 263.369 299.144 267.131 302.308 270.92C305.471 274.709 308.531 278.576 311.578 282.456C311.708 282.625 311.656 282.56 311.682 282.612C311.708 282.664 311.682 282.677 311.682 282.69C311.705 282.738 311.736 282.783 311.773 282.82C311.884 282.978 312.025 283.112 312.188 283.215C312.352 283.318 312.533 283.387 312.724 283.419C312.87 283.439 313.019 283.439 313.166 283.419C313.244 283.425 313.323 283.425 313.401 283.419H313.518C313.583 283.419 313.518 283.419 313.726 283.341L316.981 281.571C321.356 279.253 325.77 276.987 330.327 274.956L334.141 279.683C330.47 283.055 326.642 287.286 322.775 290.385L319.859 292.677C319.677 292.824 319.486 292.959 319.286 293.08C319.065 293.237 318.834 293.381 318.596 293.51C318.124 293.781 317.637 294.025 317.137 294.239C316.129 294.663 315.07 294.956 313.987 295.111C311.796 295.433 309.56 295.209 307.477 294.46C306.417 294.084 305.41 293.572 304.482 292.937C304.013 292.624 303.571 292.26 303.18 291.908C302.959 291.726 302.776 291.518 302.568 291.322L302.047 290.802C298.597 287.26 295.199 283.693 291.866 280.06C288.532 276.428 285.238 272.769 282.088 268.967L292.634 259.736Z" fill="#B55B52"/>
<path d="M328.608 277.821L331.642 268.069L339.636 272.053C339.636 272.053 338.464 279.162 332.657 280.399L328.608 277.821Z" fill="#B55B52"/>
<path d="M334.832 265.374L342.045 267.353L339.623 272.053L331.629 268.069L334.832 265.374Z" fill="#B55B52"/>
<path d="M250.605 262.392C249.746 266.532 248.678 270.634 247.572 274.722C246.465 278.81 245.254 282.859 243.991 286.909L243.522 288.432L243.288 289.187C243.256 289.296 243.213 289.401 243.158 289.5C243.009 289.918 242.926 290.358 242.91 290.802C242.883 291.748 243.146 292.679 243.666 293.471C243.922 293.818 244.205 294.144 244.512 294.447L245.592 295.632L247.728 298.015C249.121 299.629 250.527 301.244 251.855 302.936L247.311 308.144C245.436 307.077 243.639 305.918 241.843 304.772L239.174 303.001L237.872 302.103C237.429 301.791 237.064 301.582 236.348 300.996C233.801 298.825 232.043 295.873 231.349 292.598C230.999 290.929 230.916 289.216 231.101 287.521C231.101 287.104 231.231 286.635 231.297 286.219L231.44 285.437L231.713 283.875C232.442 279.696 233.223 275.529 234.096 271.389C234.968 267.248 235.906 263.121 237.012 259.046L250.605 262.392Z" fill="#B55B52"/>
<path d="M247.402 302.52L252.767 299.772L255.136 308.886C255.136 308.886 250.827 310.54 247.493 308.418L247.402 302.52Z" fill="#B55B52"/>
<path d="M260.188 296.843L260.435 305.228L254.433 309.147L252.35 299.942L260.188 296.843Z" fill="#B55B52"/>
<path d="M277.752 219.348C277.882 219.986 278.338 220.442 278.754 220.363C279.171 220.285 279.418 219.686 279.288 219.061C279.158 218.436 278.702 217.968 278.286 218.046C277.869 218.124 277.622 218.736 277.752 219.348Z" fill="#263238"/>
<path d="M278.273 220.455C279.445 222.271 280.86 223.918 282.478 225.35C282.101 225.756 281.641 226.075 281.128 226.284C280.615 226.493 280.063 226.588 279.51 226.561L278.273 220.455Z" fill="#A02724"/>
<path d="M274.666 216.249C274.591 216.248 274.518 216.226 274.455 216.184C274.393 216.143 274.343 216.085 274.313 216.016C274.283 215.947 274.273 215.871 274.285 215.797C274.297 215.723 274.33 215.654 274.38 215.598C274.787 215.137 275.298 214.779 275.871 214.552C276.443 214.326 277.061 214.238 277.674 214.296C277.724 214.306 277.772 214.325 277.815 214.353C277.858 214.381 277.895 214.417 277.924 214.459C277.953 214.502 277.974 214.549 277.984 214.599C277.995 214.65 277.996 214.701 277.986 214.752C277.978 214.802 277.961 214.85 277.934 214.892C277.907 214.935 277.872 214.973 277.831 215.002C277.79 215.031 277.743 215.051 277.694 215.062C277.644 215.073 277.593 215.074 277.544 215.064C277.058 215.018 276.568 215.088 276.115 215.269C275.662 215.45 275.259 215.737 274.94 216.106C274.87 216.187 274.772 216.238 274.666 216.249Z" fill="#263238"/>
<path d="M258.977 228.423C260.409 234.399 261.854 245.349 256.725 249.32C256.725 249.32 258.73 255.387 272.349 255.387C287.322 255.387 279.51 251.481 279.51 251.481C271.333 249.893 271.541 242.797 273 238.149L258.977 228.423Z" fill="#B55B52"/>
<path d="M255.123 250.427C254.238 248.773 253.248 246.872 255.279 246.273C257.519 245.622 271.88 244.411 276.111 245.635C274.809 247.94 277.01 250.843 277.01 250.843L255.123 250.427Z" fill="#263238"/>
<path d="M267.023 529.81H276.411L277.348 510.905H267.948L267.023 529.81Z" fill="#B55B52"/>
<path d="M207.405 527.206L216.922 527.714L222.703 509.082L213.186 508.574L207.405 527.206Z" fill="#B55B52"/>
<path d="M216.636 526.958L207.665 525.018C207.508 524.983 207.344 525.002 207.199 525.073C207.054 525.144 206.939 525.263 206.871 525.409L203.759 532.166C203.683 532.331 203.645 532.51 203.648 532.691C203.652 532.872 203.697 533.05 203.78 533.211C203.863 533.372 203.981 533.511 204.127 533.619C204.272 533.727 204.44 533.8 204.619 533.833C207.756 534.458 209.319 534.601 213.264 535.461C215.686 535.981 221.167 537.322 224.513 538.065C227.859 538.807 229.018 535.578 227.716 534.979C221.857 532.31 219.409 529.953 217.821 527.753C217.536 527.353 217.114 527.07 216.636 526.958Z" fill="#263238"/>
<path d="M275.916 528.859H266.997C266.836 528.861 266.68 528.918 266.555 529.019C266.43 529.121 266.342 529.262 266.307 529.419L264.693 536.671C264.651 536.847 264.65 537.03 264.69 537.206C264.73 537.382 264.809 537.546 264.922 537.687C265.035 537.828 265.179 537.941 265.342 538.017C265.505 538.094 265.684 538.132 265.865 538.129C269.081 538.129 273.677 537.882 277.778 537.882C282.504 537.882 286.579 538.143 292.1 538.143C295.446 538.143 296.384 534.757 294.977 534.445C288.585 533.052 283.377 532.895 277.856 529.497C277.279 529.113 276.609 528.892 275.916 528.859Z" fill="#263238"/>
<path d="M239.707 252.08C232.625 255.452 230.698 275.894 230.698 275.894L248.236 283.992C251.2 278.992 252.815 273.308 252.923 267.496C253.274 256.937 246.96 248.682 239.707 252.08Z" fill="#263238"/>
<path opacity="0.4" d="M249.186 264.684C246.022 269.605 246.322 277.209 247.415 283.628L248.197 283.992C251.158 278.991 252.773 273.307 252.884 267.496C252.884 266.871 252.884 266.194 252.884 265.634L249.186 264.684Z" fill="black"/>
<path d="M288.65 251.585C288.65 251.585 297.347 261.403 289.131 322.154H245.475C245.176 315.449 249.381 282.755 242.871 251.169C247.696 250.241 252.576 249.623 257.48 249.32C263.664 248.968 269.862 248.968 276.046 249.32C280.299 249.751 284.513 250.508 288.65 251.585Z" fill="#407BFF"/>
<path opacity="0.6" d="M288.65 251.585C288.65 251.585 297.347 261.403 289.131 322.154H245.475C245.176 315.449 249.381 282.755 242.871 251.169C247.696 250.241 252.576 249.623 257.48 249.32C263.664 248.968 269.862 248.968 276.046 249.32C280.299 249.751 284.513 250.508 288.65 251.585Z" fill="#FAFAFA"/>
<path opacity="0.2" d="M292.465 270.152L292.308 270.009L283.624 265.374C282.739 278.745 288.715 287.13 292.269 290.789C292.715 283.919 292.78 277.029 292.465 270.152Z" fill="black"/>
<path opacity="0.2" d="M277.348 510.905L276.867 520.657H267.466L267.948 510.905H277.348Z" fill="black"/>
<path opacity="0.2" d="M213.186 508.587L222.703 509.082L219.722 518.691L210.204 518.183L213.186 508.587Z" fill="black"/>
<path d="M255.956 222.356C258.053 230.168 258.886 234.868 263.768 238.123C271.034 243.018 280.069 237.394 280.356 229.1C280.603 221.639 277.14 210.091 268.742 208.515C266.888 208.148 264.971 208.263 263.174 208.848C261.376 209.434 259.759 210.47 258.477 211.858C257.194 213.246 256.289 214.94 255.848 216.778C255.407 218.616 255.444 220.536 255.956 222.356Z" fill="#B55B52"/>
<path d="M273.651 322.154C273.651 322.154 264.38 384.533 259.329 407.917C253.73 433.566 223.862 518.196 223.862 518.196L209.241 515.032C209.241 515.032 227.976 446.026 232.677 410.247C234.499 396.277 236.7 373.791 239.486 355.003C242.181 336.775 245.501 322.167 245.501 322.167L273.651 322.154Z" fill="#263238"/>
<path d="M227.364 513.313L224.63 518.6L208.199 515.032L209.579 510.098L227.364 513.313Z" fill="#407BFF"/>
<path opacity="0.6" d="M227.364 513.313L224.63 518.6L208.199 515.032L209.579 510.098L227.364 513.313Z" fill="white"/>
<path opacity="0.6" d="M267.792 344.379C257.076 346.475 258.209 386.434 259.498 406.979C262.597 392.449 267.115 364.508 270.2 344.665C269.454 344.298 268.604 344.197 267.792 344.379Z" fill="black"/>
<path d="M289.131 322.154C289.131 322.154 293.493 383.192 292.608 408.086C291.683 433.983 279.405 518.756 279.405 518.756H265.578C265.578 518.756 265.07 435.428 264.458 410.052C263.781 382.319 260.435 322.141 260.435 322.141L289.131 322.154Z" fill="#263238"/>
<path d="M282.062 513.261C282.127 513.261 281.28 519.003 281.28 519.003H264.458L264.003 513.873L282.062 513.261Z" fill="#407BFF"/>
<path opacity="0.6" d="M282.062 513.261C282.127 513.261 281.28 519.003 281.28 519.003H264.458L264.003 513.873L282.062 513.261Z" fill="white"/>
<path d="M283.559 263.004C283.559 279.383 292.269 286.128 292.269 286.128L306.474 272.3C303.112 266.681 299.283 261.355 295.029 256.377C286.814 246.963 283.559 252.484 283.559 263.004Z" fill="#263238"/>
<path opacity="0.2" d="M279.809 232.068C279.519 232.889 279.033 233.627 278.394 234.217C277.754 234.807 276.979 235.232 276.137 235.454C275.212 235.643 274.371 236.124 273.741 236.828C273.11 237.531 272.722 238.419 272.635 239.36C274.321 238.796 275.85 237.842 277.096 236.574C278.343 235.307 279.273 233.763 279.809 232.068Z" fill="black"/>
<path d="M276.137 206.797C279.054 203.112 274.562 202.891 274.562 202.891C275.734 198.503 270.474 200.86 270.474 200.86C267.323 196.511 265.539 201.81 265.539 201.81C262.271 198.125 261.633 204.141 261.633 204.141C258.352 199.466 256.686 206.211 256.686 206.211C253.665 201.354 251.816 207.669 251.816 207.669C245.579 205.443 248.535 211.927 248.535 211.927C243.223 212.07 247.493 216.197 247.493 216.197C241.114 216.197 246.738 219.856 246.738 219.856C241.673 223.176 248.04 224.074 248.04 224.074C243.913 230.584 251.009 228.136 251.009 228.136C248.131 234.542 254.498 231.717 254.498 231.717C254.095 237.888 257.649 236.209 259.368 235.063C259.693 236.365 260.318 237.667 261.464 237.771C263.69 238.071 264.068 233.865 264.068 233.865C264.068 233.865 266.125 235.48 267.857 234.607C269.588 233.735 268.937 231.535 268.937 231.535C269.313 231.816 269.77 231.968 270.239 231.968C270.709 231.968 271.165 231.816 271.541 231.535C272.283 230.962 272.284 226.821 271.346 225.363L274.731 224.061C274.731 224.061 277.244 223.71 276.124 220.39C275.449 218.481 275.39 216.409 275.955 214.465C279.783 212.669 276.632 210.559 276.632 210.559C281.072 207.708 276.137 206.797 276.137 206.797Z" fill="#263238"/>
<path d="M269.276 222.642C269.806 224.584 270.964 226.297 272.57 227.511C274.692 229.1 276.281 227.511 276.124 225.129C275.994 222.968 274.718 219.543 272.375 218.892C270.031 218.241 268.716 220.337 269.276 222.642Z" fill="#B55B52"/>
</g>
<defs>
<filter id="filter0_f_4_41" x="0.144829" y="-62.8552" width="776.71" height="776.71" filterUnits="userSpaceOnUse" color-interpolation-filters="sRGB">
<feFlood flood-opacity="0" result="BackgroundImageFix"/>
<feBlend mode="normal" in="SourceGraphic" in2="BackgroundImageFix" result="shape"/>
<feGaussianBlur stdDeviation="31.4276" result="effect1_foregroundBlur_4_41"/>
</filter>
</defs>
</svg>
