<svg width="36" height="37" viewBox="0 0 36 37" fill="none" xmlns="http://www.w3.org/2000/svg">
<path opacity="0.58" d="M36 0.5H0V36.5H36V0.5Z" fill="white"/>
<path d="M18.3 9.30499C18.195 9.30499 18.09 9.30501 18 9.32001V3.51499C18.105 3.49999 18.195 3.5 18.3 3.5C21.69 3.5 24.6 4.535 26.985 6.29C27.735 6.83 27.795 7.92501 27.135 8.57001L25.05 10.61C24.54 11.105 23.76 11.195 23.175 10.79C22.05 10.01 20.445 9.30499 18.3 9.30499Z" fill="#435673"/>
<path d="M32.7 18.8299C32.7 23.4049 31.065 27.2449 28.23 29.8699C25.755 32.1649 22.35 33.4999 18.3 33.4999C18.195 33.4999 18.105 33.4999 18 33.4849V27.6799C18.105 27.6949 18.195 27.6949 18.3 27.6949C20.535 27.6949 22.23 27.0799 23.505 26.1949C25.5 24.7999 26.4 22.7149 26.565 21.3349H19.8C18.975 21.3349 18.3 20.6599 18.3 19.8349V17.2699C18.3 16.4449 18.975 15.7699 19.8 15.7699H31.125C31.89 15.7699 32.535 16.3399 32.61 17.1049C32.67 17.6299 32.7 18.1849 32.7 18.8299Z" fill="#435673"/>
<path opacity="0.4" d="M9.74993 15.53C9.44993 16.46 9.26993 17.465 9.26993 18.5C9.26993 19.535 9.44993 20.525 9.76493 21.47C10.9349 24.995 14.1749 27.56 17.9999 27.68V33.485C12.2699 33.38 7.33493 30.05 4.91993 25.235H4.90493C3.88493 23.195 3.29993 20.915 3.29993 18.5C3.29993 16.085 3.88493 13.805 4.90493 11.765C7.31993 6.95001 12.2549 3.62001 17.9999 3.51501V9.32003C14.4599 9.42503 11.4449 11.615 10.0649 14.72C9.94493 14.99 9.83993 15.26 9.74993 15.53Z" fill="#435673"/>
</svg>
