<svg width="415" height="78" viewBox="0 0 415 78" fill="none" xmlns="http://www.w3.org/2000/svg">
<path d="M21.5544 57.4771C21.3809 57.3588 21.3782 57.2663 21.2056 57.1789C9.29071 51.0192 12.6739 44.567 27.1068 37.9464C38.0163 32.9708 54.3841 28.5452 74.8464 24.5551C111.372 17.3512 154.421 12.239 203.659 9.38264C239.653 7.28306 275.347 6.54929 310.411 7.56102C330.667 8.14158 349.239 9.29561 365.455 11.3203C382.012 13.3659 393.997 16.1001 400.733 19.6661C401.596 20.0727 402.628 20.4744 403.66 20.876C412.78 24.4958 415.616 28.4532 412.849 32.6976C409.103 38.3585 397.011 43.6154 377.936 48.521C376.417 48.9355 374.729 49.3549 373.381 49.7951C344.223 58.8504 303.425 65.3464 251.323 69.1191C190.225 73.5246 132.401 73.5475 78.6964 69.0397C56.0213 67.1419 36.7241 64.4362 22.6676 60.6521C-1.67364 54.1151 -4.10224 46.6606 13.1736 38.3841C24.075 33.1311 40.9463 28.4749 61.9103 24.1926C95.386 17.3861 135.205 12.3066 179.659 8.69553C204.091 6.71763 228.712 5.35108 253.862 4.64759C269.326 4.19608 284.796 3.9911 299.776 4.44813C307.776 4.67717 315.272 5.10598 321.588 5.9085C323.807 6.18297 325.688 6.52899 327.568 6.8442C328.594 7.03013 329.451 7.28266 327.933 7.6971C327.251 7.65532 326.401 7.64931 325.888 7.57175C317.164 5.82179 305.071 5.21878 291.967 4.9537C276.993 4.68157 261.695 4.97403 246.236 5.57961C183.212 8.06747 127.081 13.6541 78.3538 22.3555C54.1602 26.7012 34.9162 31.6426 21.8139 37.2374C11.9042 41.5053 7.26674 45.7735 9.26282 50.0639C10.358 52.6226 14.1684 54.9787 20.0143 57.152C20.1869 57.2394 20.5295 57.322 20.8711 57.3737C20.8729 57.4353 21.2128 57.4254 21.5544 57.4771ZM405.905 33.7023C403.881 34.2548 403.557 34.8194 404.253 35.3543C403.916 35.4566 403.238 35.5381 403.071 35.6355C402.403 36.056 402.075 36.4973 401.578 36.9436C401.748 36.9386 401.918 36.9337 402.089 36.9595C402.753 36.4158 403.419 35.9029 404.253 35.3543C404.747 34.8155 405.241 34.246 405.905 33.7023C405.896 33.3941 406.058 33.1118 406.22 32.8295C405.88 32.8394 405.71 32.8444 405.37 32.8543C405.549 33.1575 405.727 33.4299 405.905 33.7023ZM249.253 9.87105C215.268 10.8942 184.886 12.9841 155.894 16.082C127.919 19.0578 103.197 22.7713 82.7549 27.4701C68.5646 30.7527 57.443 34.2849 50.7529 38.1504C45.0662 41.4315 43.1198 44.665 46.1039 47.8471C49.2652 51.2707 58.3587 53.9968 72.0276 56.1576C96.4605 60.0088 123.594 63.1642 153.429 65.624C168.089 66.7997 183.253 67.7448 199.593 68.1622C203.336 68.2379 206.909 68.2878 210.816 68.1121C233.407 67.1132 255.301 65.5795 276.499 63.4802C310.924 60.0694 341.067 55.6116 365.901 49.8902C368.097 49.3943 369.952 48.8467 371.637 48.304C378.373 46.0101 383.747 43.6634 388.098 41.2541C398.474 35.4921 403.07 29.7756 399.503 24.1124C398.428 22.2624 395.489 20.6211 389.835 19.1824C378.696 16.3001 364.514 14.0618 347.12 12.4417C316.763 9.56533 283.068 8.8837 249.253 9.87105ZM167.552 13.4594C167.551 13.4285 167.38 13.3719 167.379 13.3411C166.021 13.4424 164.664 13.5745 163.307 13.6758C147.872 15.1134 133.294 16.7727 119.235 18.7253C88.5773 23.0131 63.0442 28.0764 44.3441 34.1739C30.0244 38.8482 21.4921 43.6927 20.9591 48.7354C20.2795 54.5844 29.9457 59.4527 51.8234 63.1626C63.1034 65.0538 76.5781 66.3875 91.2324 67.3475C119.519 69.2048 149.634 69.6209 181.249 69.0062C184.649 68.9378 187.877 68.8127 191.275 68.7134C190.591 68.5792 189.74 68.5424 188.888 68.5056C181.907 68.2159 174.757 67.9929 168.114 67.6317C126.717 65.2628 91.7322 61.1646 60.628 55.997C55.5014 55.1597 51.7288 54.0979 48.2942 52.9645C37.2991 49.1836 35.8147 44.94 41.1246 40.4054C46.9308 35.3937 59.8938 30.8516 77.9699 26.6845C100.774 21.3616 128.888 17.3023 160.769 14.1201C163.143 13.8965 165.348 13.6779 167.552 13.4594ZM340.925 56.5719C340.753 56.5152 340.412 56.4635 340.24 56.4068C306.558 61.9857 268.92 66.0146 227.149 68.3137C185.548 70.6078 144.914 71.0849 105.243 69.56C113.424 70.1538 121.938 70.5221 130.791 70.8187C163.986 71.885 197.984 71.3241 232.623 69.3875C266.242 67.5115 296.594 64.3738 323.502 59.7947C329.424 58.7582 335.004 57.6392 340.925 56.5719ZM406.7 31.7977C406.53 31.8027 406.53 31.8027 406.7 31.7977C406.534 31.9259 406.536 32.0184 406.54 32.1416L406.71 32.1367C406.707 32.0442 406.704 31.921 406.7 31.7977Z" fill="#406172" fill-opacity="0.7"/>
</svg>
